<?xml version="1.0" standalone="no"?>
<!DOCTYPE svg PUBLIC "-//W3C//DTD SVG 20010904//EN"
 "http://www.w3.org/TR/2001/REC-SVG-20010904/DTD/svg10.dtd">
<svg version="1.0" xmlns="http://www.w3.org/2000/svg"
 width="522.000000pt" height="522.000000pt" viewBox="0 0 522.000000 522.000000"
 preserveAspectRatio="xMidYMid meet">
<metadata>
Created by potrace 1.11, written by Peter Selinger 2001-2013
</metadata>
<g transform="translate(0.000000,522.000000) scale(0.100000,-0.100000)"
fill="#000000" stroke="none">
<path d="M581 5206 c-6 -7 -12 -23 -13 -37 -3 -21 1 -24 27 -24 25 0 31 5 33
25 3 31 -30 57 -47 36z"/>
<path d="M630 5210 c0 -5 10 -11 23 -11 16 -1 18 -2 5 -6 -23 -6 -23 -23 0
-23 10 0 23 -5 29 -11 11 -11 53 -4 53 10 0 4 -9 17 -20 29 -21 23 -90 32 -90
12z m90 -30 c0 -5 -9 -10 -21 -10 -11 0 -17 5 -14 10 3 6 13 10 21 10 8 0 14
-4 14 -10z"/>
<path d="M764 5213 c4 -5 22 -8 39 -8 27 0 32 -3 30 -22 -2 -17 2 -23 16 -23
24 0 39 39 20 51 -17 11 -115 12 -105 2z"/>
<path d="M1635 5210 c3 -5 1 -10 -4 -10 -6 0 -11 -7 -11 -15 0 -8 -4 -15 -10
-15 -5 0 -10 -4 -10 -10 0 -19 31 -10 41 13 8 18 17 22 38 19 19 -3 30 1 34
12 5 13 -2 16 -39 16 -28 0 -43 -4 -39 -10z"/>
<path d="M1825 5210 c3 -5 10 -10 16 -10 5 0 9 5 9 10 0 6 -7 10 -16 10 -8 0
-12 -4 -9 -10z"/>
<path d="M2040 5204 c0 -8 5 -12 10 -9 6 3 10 10 10 16 0 5 -4 9 -10 9 -5 0
-10 -7 -10 -16z"/>
<path d="M2925 5212 c-5 -4 -15 -17 -22 -29 -10 -17 -9 -24 2 -33 8 -7 15 -22
15 -34 1 -19 2 -20 14 -4 13 18 26 14 26 -8 0 -6 -10 -14 -21 -17 -14 -4 -20
-11 -16 -21 8 -20 -53 -17 -70 4 -9 10 -12 11 -13 3 0 -19 -20 -16 -20 3 0 14
-3 14 -15 4 -13 -10 -15 -9 -15 10 0 16 -3 20 -12 13 -21 -16 -42 -9 -55 17
l-13 25 0 -27 c0 -16 5 -28 10 -28 6 0 10 -5 10 -11 0 -8 -4 -9 -13 0 -8 6
-17 8 -20 4 -4 -3 -7 -1 -7 5 0 7 -11 9 -30 6 -23 -5 -30 -3 -30 10 0 9 -4 16
-10 16 -5 0 -10 -8 -10 -17 -1 -17 -1 -17 -11 0 -10 18 -11 18 -25 0 -9 -12
-13 -13 -14 -5 0 9 -7 11 -21 7 -13 -5 -25 -2 -30 6 -5 8 -31 14 -68 15 -33 1
-65 5 -71 9 -12 7 -115 -12 -143 -26 -11 -6 -23 -7 -30 -1 -7 5 -29 7 -50 4
-32 -4 -41 -10 -49 -33 -5 -16 -11 -29 -11 -29 -1 0 -19 6 -40 13 l-38 14 26
19 c25 19 36 74 15 74 -5 0 -10 -6 -10 -14 0 -8 -6 -17 -12 -19 -10 -4 -10 -6
0 -6 6 -1 12 -6 12 -12 0 -15 -38 -1 -61 22 -10 10 -28 19 -38 19 -11 0 -22 6
-24 13 -5 10 -12 -95 -8 -116 1 -5 -6 -21 -16 -37 -13 -22 -20 -27 -30 -18
-19 15 -16 28 7 28 14 0 20 7 20 21 0 16 -3 19 -12 11 -13 -10 -18 -12 -38
-12 -6 0 -10 -6 -8 -14 2 -8 -1 -14 -7 -13 -5 1 -9 10 -8 20 3 19 -31 25 -42
7 -3 -5 1 -10 9 -10 23 0 20 -47 -3 -59 -10 -6 -21 -8 -24 -5 -3 3 -3 -4 0
-16 5 -19 3 -21 -16 -15 -13 4 -21 2 -21 -5 0 -13 -99 -110 -112 -110 -5 0
-13 -11 -18 -25 -5 -14 -14 -25 -20 -25 -5 0 -10 -9 -10 -20 0 -13 -9 -22 -27
-26 -29 -7 -63 -36 -63 -54 0 -5 -8 -10 -19 -10 -14 0 -17 -6 -13 -25 3 -20 0
-25 -17 -25 -28 0 -61 -17 -61 -32 0 -7 4 -7 14 1 11 9 16 9 22 0 4 -7 3 -14
-4 -17 -6 -2 -16 -19 -22 -38 -10 -30 -15 -33 -37 -28 -19 5 -24 4 -18 -5 4
-7 -1 -22 -12 -34 -11 -12 -23 -30 -27 -41 -3 -10 -12 -16 -20 -13 -8 3 -27
-17 -51 -54 -20 -32 -45 -59 -54 -60 -10 0 -7 -4 9 -10 19 -8 21 -12 11 -18
-7 -5 -11 -13 -8 -18 4 -6 -2 -19 -12 -30 -19 -20 -37 -62 -33 -76 2 -5 -7
-11 -18 -14 -11 -3 -20 -9 -20 -14 0 -5 -7 -9 -16 -9 -8 0 -12 -5 -9 -10 4 -6
1 -17 -5 -25 -7 -8 -9 -15 -5 -15 4 0 2 -7 -5 -15 -10 -13 -9 -15 8 -15 25 0
39 -19 22 -30 -15 -9 -4 -30 16 -30 12 0 12 -4 4 -20 -6 -11 -15 -20 -21 -20
-6 0 -7 6 -3 13 5 9 3 9 -7 -1 -12 -11 -12 -14 1 -22 8 -6 22 -8 30 -5 8 2 5
-3 -8 -11 -16 -12 -22 -26 -22 -56 0 -32 -4 -41 -21 -45 -16 -4 -17 -8 -7 -14
10 -7 9 -9 -4 -9 -10 0 -18 -4 -18 -10 0 -5 11 -10 24 -10 31 0 25 -32 -10
-51 -19 -9 -21 -15 -11 -20 11 -7 38 -6 57 1 3 1 15 1 28 0 12 -1 22 3 22 9 0
6 -4 11 -9 11 -9 0 -7 29 5 68 6 21 5 22 -20 11 -29 -14 -46 -5 -28 13 7 7 12
29 12 50 0 21 5 38 11 38 7 0 8 -11 4 -31 -4 -19 -3 -29 3 -26 5 4 12 30 15
59 4 29 11 54 17 56 5 2 10 8 10 13 0 6 11 22 25 37 16 17 25 21 25 13 0 -8
-10 -25 -22 -38 -32 -34 -13 -41 22 -8 17 16 30 39 30 52 0 13 7 26 16 30 8 3
13 11 10 18 -5 14 27 67 40 65 15 -2 17 32 2 41 -9 6 -7 9 10 9 12 0 22 5 22
10 0 6 9 10 20 10 16 0 20 7 20 31 0 25 6 33 29 42 18 7 32 22 40 44 9 23 18
33 27 29 8 -3 15 0 16 7 0 7 2 17 2 22 3 21 27 55 38 55 7 0 26 14 43 30 33
32 30 31 219 55 22 2 47 12 56 20 19 17 66 20 75 5 10 -16 57 -11 71 8 12 15
15 15 23 2 8 -12 12 -9 20 13 6 15 15 27 20 27 6 0 8 -7 5 -15 -4 -10 2 -18
17 -24 19 -7 29 -3 47 16 12 13 22 29 22 34 0 6 8 8 18 5 9 -3 34 -2 54 3 26
6 45 5 62 -4 20 -11 32 -11 62 0 21 7 40 18 42 24 5 14 34 14 67 -1 21 -10 31
-9 55 5 33 20 56 22 63 5 3 -7 6 0 6 16 1 22 5 27 18 22 9 -4 20 -1 25 6 8 10
11 10 15 1 2 -7 9 -13 14 -13 6 0 7 6 3 13 -5 7 0 6 10 -3 12 -9 43 -15 80
-16 105 -3 156 -16 156 -40 0 -8 10 -14 24 -14 33 0 42 -16 14 -23 -31 -9 -18
-17 39 -26 37 -5 48 -11 47 -24 -2 -17 14 -21 64 -17 12 1 22 -3 22 -7 0 -5
16 -16 35 -23 22 -9 34 -19 31 -27 -4 -8 8 -20 28 -30 24 -11 37 -26 46 -54
12 -36 16 -39 51 -39 36 0 37 -1 44 -42 7 -38 8 -40 19 -20 l11 21 23 -26 c12
-14 17 -23 10 -20 -9 3 -13 -5 -14 -24 -1 -23 2 -27 12 -18 14 11 19 -7 17
-66 0 -11 10 -34 23 -52 22 -29 23 -33 7 -48 -13 -14 -14 -24 -6 -58 6 -23 14
-50 18 -60 6 -13 4 -16 -9 -11 -9 3 -16 1 -16 -6 0 -6 4 -9 9 -6 5 3 14 -1 21
-9 10 -12 9 -16 -4 -21 -9 -3 -16 -15 -16 -26 0 -10 4 -17 9 -14 4 3 6 -6 3
-19 -2 -15 0 -25 7 -25 7 0 9 -4 6 -10 -3 -5 1 -10 9 -10 14 0 14 -3 4 -20 -9
-14 -15 -16 -21 -7 -5 7 -5 1 -1 -13 8 -25 9 -58 3 -95 -3 -14 1 -20 15 -20
10 0 22 -10 27 -22 4 -12 17 -24 28 -28 11 -3 23 -15 26 -26 4 -11 12 -18 18
-17 15 3 67 -41 67 -56 0 -6 12 -28 26 -49 31 -46 52 -113 58 -187 2 -30 9
-68 15 -83 14 -35 14 -50 1 -42 -6 4 -10 -6 -10 -22 0 -22 2 -25 10 -13 11 17
13 10 10 -36 -1 -17 6 -36 14 -43 10 -8 13 -22 10 -40 -4 -18 0 -32 10 -40 10
-9 14 -22 10 -37 -5 -19 -3 -23 9 -19 11 5 16 -5 21 -37 13 -75 16 -201 7
-234 -7 -25 -6 -31 4 -28 7 3 16 1 20 -5 3 -6 0 -14 -8 -17 -8 -3 -14 -17 -14
-31 0 -14 -6 -29 -13 -33 -9 -5 -9 -9 -1 -14 15 -9 14 -89 -1 -104 -8 -8 -8
-15 1 -26 10 -12 7 -18 -18 -32 -33 -20 -41 -44 -15 -44 14 0 15 -9 9 -67 -7
-70 -18 -103 -36 -103 -6 0 -7 -6 -3 -12 5 -7 9 -19 9 -28 1 -8 5 -25 9 -37 6
-19 4 -22 -10 -16 -12 4 -15 2 -10 -8 3 -8 9 -22 12 -31 4 -10 10 -18 15 -18
8 0 3 -80 -8 -110 -4 -12 -7 -11 -13 5 -5 15 -9 7 -15 -32 -4 -29 -11 -56 -17
-59 -5 -3 -2 -14 8 -25 16 -18 16 -19 -4 -19 -15 0 -22 -6 -22 -20 0 -11 -7
-20 -15 -20 -9 0 -15 -6 -14 -12 3 -27 -1 -48 -10 -48 -6 0 -12 15 -14 33 l-4
32 -1 -32 c-2 -33 -16 -44 -25 -20 -3 6 -6 3 -6 -8 -1 -12 5 -27 12 -34 10
-10 9 -15 -5 -25 -10 -7 -18 -26 -19 -42 0 -25 -2 -26 -9 -9 -7 16 -9 12 -9
-20 -1 -45 -9 -60 -31 -60 -10 0 -16 -12 -18 -37 -3 -41 -12 -46 -36 -22 -15
14 -16 13 -16 -8 0 -18 -2 -20 -10 -8 -7 11 -10 7 -10 -17 0 -35 16 -53 23
-26 3 11 5 6 6 -11 1 -25 -1 -27 -16 -15 -9 8 -22 27 -29 44 -7 16 -13 23 -14
15 0 -8 -7 -2 -15 13 -8 16 -14 33 -12 40 1 6 -6 13 -16 15 -16 3 -16 0 4 -37
12 -24 18 -49 15 -58 -6 -15 -8 -15 -16 -3 -6 8 -10 23 -10 33 0 11 -7 17 -22
16 -13 0 -17 -3 -10 -6 14 -5 17 -33 3 -33 -5 0 -11 7 -15 15 -3 8 -9 15 -13
14 -27 -5 -45 4 -53 26 -12 31 -33 33 -28 3 2 -15 15 -28 36 -37 43 -20 41
-31 -5 -20 -21 4 -39 6 -42 3 -2 -2 1 -4 7 -4 7 0 12 -6 12 -14 0 -8 7 -13 16
-12 9 0 18 -3 20 -9 5 -13 -41 -67 -50 -58 -3 3 -6 1 -6 -5 0 -7 6 -12 14 -12
14 0 29 -24 20 -33 -3 -3 -17 1 -31 8 -32 17 -53 7 -27 -12 15 -11 16 -15 5
-22 -10 -7 -11 -9 0 -13 12 -4 21 -128 9 -128 -3 0 -14 10 -24 22 -13 14 -15
23 -8 26 8 2 8 8 -2 18 -20 20 -26 18 -26 -11 0 -14 -5 -25 -11 -25 -7 0 -8
-11 -4 -30 7 -30 -8 -43 -19 -17 -3 6 -4 -1 -3 -17 1 -16 -4 -31 -10 -33 -8
-3 -14 5 -14 19 -1 15 -4 12 -8 -12 -4 -19 -2 -38 3 -41 5 -4 2 -17 -7 -29
-14 -20 -16 -20 -20 -3 -4 17 -5 17 -6 -1 -1 -15 -4 -16 -16 -6 -12 10 -15 10
-15 -4 0 -9 -7 -16 -15 -16 -8 0 -15 -4 -15 -10 0 -5 -7 -7 -15 -4 -9 4 -15 0
-15 -7 0 -12 -2 -12 -9 0 -7 11 -13 9 -29 -7 -13 -13 -24 -17 -28 -11 -4 7
-10 6 -19 -1 -8 -7 -19 -9 -25 -5 -5 3 -10 -2 -10 -14 0 -17 -4 -19 -32 -11
-21 7 -36 6 -45 -1 -7 -6 -13 -8 -13 -4 0 4 -7 2 -15 -5 -13 -11 -15 -8 -15
14 0 16 -4 25 -10 21 -6 -3 -10 -15 -10 -26 0 -13 -7 -19 -24 -19 -13 0 -27
-6 -29 -12 -3 -7 -6 -2 -7 12 0 22 -2 23 -13 9 -7 -9 -18 -14 -25 -11 -7 2
-19 -1 -26 -7 -10 -9 -15 -8 -20 4 -3 8 -14 15 -23 15 -10 0 -29 7 -41 16 -16
11 -22 12 -22 3 0 -10 -3 -10 -12 -1 -7 7 -20 12 -30 12 -10 0 -32 16 -49 35
-17 19 -35 33 -40 32 -5 -1 -15 9 -22 23 -8 15 -21 24 -33 23 -12 -1 -29 13
-47 38 -16 21 -35 39 -44 39 -12 0 -13 3 -4 14 10 12 8 15 -11 18 -17 2 -22 8
-20 25 2 16 -2 23 -14 23 -12 0 -15 6 -11 21 5 19 3 20 -31 14 -44 -8 -54 -14
-47 -25 3 -5 -3 -8 -14 -7 -11 0 -17 6 -14 14 3 8 -3 13 -16 13 -12 0 -21 5
-21 10 0 6 -7 10 -17 10 -9 0 -13 3 -9 7 10 10 37 13 31 3 -2 -4 12 -10 33
-14 56 -9 69 -7 69 9 0 8 -6 15 -14 15 -7 0 -16 7 -20 16 -3 8 -12 13 -20 10
-11 -5 -11 -1 -2 17 12 21 11 22 -8 4 -11 -10 -24 -17 -29 -16 -13 3 -48 -13
-56 -24 -4 -6 -12 -4 -22 5 -18 18 -11 28 18 28 12 0 27 4 34 8 7 5 -7 8 -35
8 -27 -1 -57 3 -68 8 l-20 8 20 8 c18 8 17 9 -6 9 -16 1 -33 11 -45 27 -10 15
-27 34 -36 42 -9 9 -15 19 -12 24 3 4 -1 8 -8 8 -11 0 -48 33 -48 44 0 1 -25
29 -55 61 -30 31 -55 63 -55 70 0 7 -3 15 -7 17 -14 6 -53 67 -53 83 0 8 -4
15 -9 15 -9 0 -80 138 -95 182 -3 10 -11 15 -19 12 -8 -3 -28 7 -45 21 -24 20
-32 37 -37 73 -3 26 -10 54 -14 62 -4 8 -14 40 -21 70 -7 30 -16 60 -20 65
-10 15 -37 104 -44 150 -9 51 -48 189 -55 192 -4 2 -5 31 -4 65 1 35 -2 77 -8
95 -13 40 -48 85 -60 78 -5 -4 -6 8 -2 26 8 40 -7 49 -72 44 -47 -3 -48 -2
-25 11 14 7 33 13 43 14 9 0 17 6 17 13 0 9 14 13 44 13 34 -1 42 -4 35 -13
-8 -8 -4 -17 10 -30 12 -9 21 -25 21 -35 0 -10 4 -18 9 -18 14 0 20 -36 26
-170 6 -129 16 -170 48 -205 18 -20 19 -18 13 70 -3 50 -8 169 -12 265 -3 96
-10 200 -15 230 -6 30 -9 111 -8 180 2 160 2 160 12 153 5 -3 7 3 4 13 -3 11
-9 43 -12 72 -6 48 -8 51 -21 35 -19 -26 -19 5 0 33 13 18 13 21 0 21 -8 0
-22 -13 -30 -29 -18 -34 -24 -35 -24 -4 0 24 43 79 54 69 9 -9 7 10 -3 25 -13
21 -21 16 -44 -25 -28 -53 -38 -111 -26 -151 8 -23 8 -37 0 -46 -6 -7 -8 -16
-4 -19 3 -4 0 -18 -7 -32 -15 -27 -5 -49 11 -25 7 11 8 6 3 -15 -4 -23 -3 -26
5 -15 8 12 11 6 11 -27 0 -52 -8 -73 -27 -73 -12 0 -14 -7 -9 -32 5 -29 4 -31
-8 -15 -7 9 -16 17 -19 17 -3 0 -8 -8 -10 -17 -6 -22 -11 75 -8 133 2 27 -3
47 -13 57 -13 12 -14 22 -6 42 13 34 3 76 -16 68 -10 -4 -11 -9 -5 -17 6 -7 6
-17 1 -26 -6 -8 -10 -26 -10 -40 0 -28 -35 -58 -43 -37 -2 7 -8 9 -12 5 -4 -4
-2 -14 4 -22 10 -11 6 -21 -19 -49 -17 -19 -26 -37 -20 -39 13 -4 -17 -68 -32
-68 -13 0 -47 -41 -48 -57 0 -7 -5 -13 -10 -13 -6 0 -8 10 -5 23 2 12 7 44 10
70 5 49 16 68 48 80 9 3 16 10 15 14 -4 15 13 53 22 48 15 -9 32 24 26 52 -5
23 -1 33 24 53 16 14 30 30 30 37 0 6 8 18 18 25 19 13 52 72 52 91 0 6 -6 2
-14 -9 -19 -25 -31 -12 -16 16 6 12 8 29 4 38 -4 9 -7 31 -6 47 0 17 -1 23 -4
15 -2 -8 -18 -23 -34 -32 -17 -9 -30 -22 -30 -28 0 -7 7 -5 16 4 19 20 31 21
14 1 -6 -8 -9 -19 -6 -24 4 -5 2 -12 -4 -16 -5 -3 -17 -21 -26 -40 -9 -20 -24
-35 -37 -37 -14 -2 -26 -14 -32 -34 -5 -16 -18 -42 -28 -57 -9 -15 -15 -27
-11 -27 4 0 1 -7 -6 -15 -7 -8 -16 -13 -20 -10 -5 3 -11 1 -14 -3 -3 -5 8 -19
24 -31 29 -21 30 -22 13 -47 -9 -14 -26 -30 -38 -34 -15 -6 -27 -24 -36 -56
-8 -26 -22 -52 -31 -58 -12 -7 -18 -23 -18 -45 0 -19 -7 -42 -16 -52 -15 -16
-14 -17 6 -12 19 5 21 3 15 -16 -5 -16 -2 -21 11 -21 14 0 16 -7 10 -39 -3
-23 -2 -42 4 -46 5 -3 10 3 10 14 0 12 5 21 10 21 16 0 12 57 -5 64 -8 3 -15
13 -15 22 0 13 3 14 14 5 11 -9 15 -9 19 1 4 11 7 10 15 0 5 -8 13 -13 18 -12
5 0 10 -7 12 -17 5 -30 25 -63 38 -63 7 0 16 -9 19 -20 7 -22 20 -26 30 -10 3
6 0 10 -7 10 -7 0 -5 5 6 11 14 9 20 8 27 -2 4 -7 5 -17 2 -22 -3 -4 4 -11 16
-14 23 -6 27 -18 9 -29 -6 -4 -19 3 -30 16 -10 12 -22 20 -26 16 -4 -4 1 -12
11 -17 21 -12 23 -33 2 -25 -9 3 -18 -1 -21 -9 -4 -8 -12 -15 -20 -15 -8 0
-22 -4 -32 -10 -9 -5 -34 -17 -56 -26 -34 -15 -40 -16 -50 -3 -6 8 -20 13 -30
11 -14 -3 -17 0 -13 12 4 9 2 16 -3 16 -6 0 -10 7 -10 15 0 21 -16 19 -32 -4
-8 -11 -22 -19 -32 -18 -30 3 -30 -22 -1 -29 18 -4 30 -2 36 7 5 8 9 9 9 3 0
-19 -24 -33 -68 -40 -40 -6 -42 -6 -42 20 0 28 -17 35 -26 11 -4 -9 -18 -22
-33 -30 -26 -14 -26 -14 -2 -15 17 0 22 -4 17 -16 -3 -9 -6 -17 -6 -18 0 -6
-139 2 -149 8 -5 4 -12 2 -16 -4 -3 -5 1 -10 9 -10 19 0 21 -16 4 -23 -10 -4
-9 -8 2 -16 8 -5 11 -13 7 -18 -5 -4 -11 -3 -15 3 -12 19 -51 23 -61 7 -7 -13
-9 -13 -14 1 -3 8 -13 13 -20 10 -9 -3 -17 3 -20 16 -7 25 -29 17 -25 -8 2
-11 -5 -18 -22 -20 -13 -2 -30 -11 -37 -20 -12 -16 -14 -15 -28 3 -14 18 -16
18 -32 2 -20 -20 -17 -24 22 -30 30 -4 70 5 111 25 15 7 28 7 42 -1 23 -12
100 -12 108 1 7 11 82 10 89 -2 11 -17 45 -11 45 8 1 16 1 16 11 0 9 -17 11
-17 31 2 15 14 29 18 47 13 36 -8 37 -10 17 -43 l-17 -30 30 0 c16 0 31 -5 33
-11 2 -6 15 -12 28 -13 31 -1 53 -52 30 -66 -11 -7 -12 -14 -5 -27 12 -19 12
-79 2 -90 -4 -3 -7 -1 -7 5 0 7 -6 12 -14 12 -12 0 -25 -24 -30 -54 0 -5 -8
-10 -16 -11 -8 -2 -19 -4 -25 -5 -21 -5 -35 1 -35 14 0 7 -9 16 -21 19 -11 3
-23 15 -26 26 -3 14 -13 21 -28 21 -18 0 -24 -7 -29 -35 -4 -20 -4 -41 1 -47
9 -16 9 -50 -1 -66 -4 -8 -5 -16 -1 -20 4 -4 10 -1 12 6 3 6 16 12 29 12 16 0
27 8 33 22 l8 21 15 -21 c16 -24 28 -19 28 10 0 10 5 18 10 18 6 0 10 -16 10
-35 0 -19 -4 -35 -10 -35 -5 0 -10 -4 -10 -10 0 -5 8 -10 18 -10 14 0 12 -4
-8 -20 -14 -11 -34 -18 -44 -16 -11 3 -32 -4 -48 -15 -16 -12 -36 -18 -44 -15
-12 5 -14 1 -8 -16 6 -21 5 -21 -10 -9 -13 11 -20 11 -28 3 -17 -17 -39 -15
-54 6 -12 15 -15 15 -23 2 -8 -12 -5 -17 15 -23 l24 -9 -24 -19 c-13 -10 -30
-19 -37 -19 -7 0 -9 -3 -5 -8 4 -4 12 -7 17 -7 5 0 9 -4 8 -9 0 -5 5 -12 12
-17 9 -5 5 -10 -13 -14 -15 -4 -34 -18 -43 -31 -8 -13 -22 -24 -30 -24 -9 0
-15 -10 -15 -26 0 -20 -4 -25 -22 -22 -11 2 -23 -3 -26 -11 -4 -11 3 -12 34
-7 22 4 40 12 42 16 2 5 14 5 28 0 15 -6 24 -6 24 0 0 6 -4 10 -10 10 -5 0
-10 9 -10 20 0 15 7 20 29 20 17 0 33 5 36 11 4 6 14 8 24 5 13 -5 13 -4 -2 8
-14 11 -15 15 -4 19 8 3 20 0 26 -6 6 -6 14 -7 18 -3 4 4 1 11 -6 15 -16 10
-6 31 15 31 9 0 12 -5 8 -12 -5 -7 -3 -8 6 -3 7 4 22 9 34 10 36 4 37 5 32 14
-7 10 17 21 45 21 11 0 17 -5 14 -10 -4 -6 22 8 56 30 68 44 68 44 89 30 12
-7 8 -10 -15 -11 -27 -1 -26 -2 13 -15 11 -3 10 -7 -2 -19 -19 -19 -27 -19
-20 0 4 9 0 15 -9 15 -19 0 -33 -20 -20 -29 5 -3 8 -13 8 -21 0 -8 6 -18 15
-22 8 -4 -7 -6 -34 -5 -29 1 -51 -3 -53 -9 -6 -17 29 -23 79 -14 23 5 47 5 52
0 9 -9 -29 -18 -94 -22 -42 -4 -43 -20 -1 -32 32 -9 49 -39 33 -59 -5 -7 -12
-24 -16 -39 -6 -26 -26 -40 -26 -18 0 17 -52 -33 -64 -62 -11 -26 -13 -26 -39
-13 -14 7 -35 11 -46 8 -12 -3 -29 -2 -38 2 -10 5 -22 9 -28 10 -5 0 -23 6
-38 13 -38 16 -55 16 -39 0 23 -23 12 -29 -18 -8 -23 17 -34 19 -50 10 -11 -6
-31 -8 -45 -4 -19 5 -32 1 -50 -16 -13 -12 -29 -19 -35 -15 -7 4 -13 -1 -16
-12 -4 -15 -12 -19 -30 -15 -13 2 -24 0 -24 -6 0 -5 -16 -13 -35 -16 -23 -5
-35 -13 -36 -24 0 -10 -5 -6 -11 11 -11 30 -28 36 -28 10 0 -10 -4 -14 -8 -8
-4 6 -15 11 -25 11 -16 2 -17 -12 -17 -181 1 -150 4 -184 16 -189 8 -3 14 -10
14 -15 0 -6 -7 -8 -15 -5 -11 5 -15 -1 -15 -24 0 -25 5 -31 33 -37 24 -6 28
-9 13 -12 -20 -5 -46 -26 -46 -37 0 -3 12 -6 26 -6 15 0 23 -4 19 -10 -4 -6
-15 -8 -25 -5 -19 6 -19 -9 -20 -499 l0 -506 2610 0 2610 0 0 895 c0 590 -3
895 -10 895 -5 0 -10 14 -10 30 0 17 -5 30 -11 30 -20 0 -48 44 -37 58 8 9 6
12 -8 13 -11 1 -23 1 -28 0 -16 -3 -24 21 -19 59 6 45 -5 54 -53 46 -31 -6
-33 -9 -23 -28 6 -11 9 -33 7 -49 -3 -15 -1 -26 4 -23 4 3 8 1 8 -5 0 -5 7
-11 15 -13 13 -2 12 -5 -4 -15 -18 -11 -19 -10 -14 5 6 15 5 15 -11 3 -9 -8
-14 -21 -11 -29 4 -12 3 -13 -10 -2 -9 7 -12 17 -7 24 13 17 5 66 -14 87 -9
10 -14 25 -11 34 4 8 2 15 -2 15 -11 0 -21 -25 -21 -51 0 -10 -5 -19 -11 -19
-7 0 -10 12 -7 30 3 18 -1 35 -9 41 -7 6 -13 26 -12 43 0 26 2 28 9 11 8 -19
9 -19 9 -1 1 10 -6 24 -16 31 -20 15 -10 50 12 41 9 -3 15 0 15 9 0 18 36 20
43 3 3 -10 7 -10 17 -1 9 8 7 16 -9 32 -25 25 -41 27 -41 6 0 -9 -6 -12 -15
-9 -8 4 -15 12 -15 20 0 8 -5 14 -11 14 -7 0 -9 -12 -7 -32 4 -26 3 -28 -7
-15 -17 24 -7 67 15 67 10 0 21 -6 23 -12 4 -10 6 -10 6 0 2 23 46 12 73 -18
28 -33 48 -39 48 -15 0 8 -4 15 -10 15 -5 0 -10 7 -10 15 0 8 6 15 13 15 6 0
25 7 41 15 28 15 43 11 66 -16 3 -3 17 -9 33 -13 23 -5 27 -3 27 14 0 12 -4
19 -9 15 -5 -3 -12 -1 -16 5 -3 5 1 10 9 10 14 0 16 17 16 109 0 77 -4 111
-12 113 -7 3 -13 21 -13 40 -1 26 2 35 12 31 7 -3 13 0 13 6 0 16 -26 14 -43
-3 -8 -9 -24 -12 -36 -9 -23 6 -29 23 -7 23 19 0 40 26 27 34 -16 10 -62 -16
-56 -32 3 -8 -3 -21 -12 -28 -24 -18 -33 -17 -33 1 0 9 -9 25 -20 37 -22 24
-26 38 -10 38 6 0 10 -4 10 -10 0 -5 5 -10 10 -10 6 0 6 7 -1 18 -17 28 -4 66
36 103 25 24 31 35 22 41 -9 6 -9 10 1 16 7 5 12 13 11 18 -4 21 2 24 22 14
16 -9 18 -14 8 -26 -6 -8 -9 -18 -5 -21 4 -4 11 -1 16 7 7 11 12 12 21 3 6 -6
18 -9 25 -6 16 6 19 33 4 33 -5 0 -10 -6 -10 -12 0 -7 -7 -1 -16 12 -10 14
-24 31 -33 38 -14 12 -14 15 8 33 12 10 28 16 34 12 6 -4 8 2 5 15 -4 15 -2
19 8 15 12 -4 14 20 14 135 0 77 -3 142 -7 144 -5 2 -20 22 -36 46 l-27 42 35
0 c34 0 35 1 35 39 0 29 -5 41 -17 44 -17 4 -17 5 0 6 23 1 22 21 -1 21 -20 0
-64 29 -45 30 6 0 19 3 28 6 10 4 15 2 13 -6 -2 -7 3 -15 10 -17 8 -3 12 8 12
36 0 23 -4 41 -10 41 -5 0 -10 -4 -10 -10 0 -24 -18 -7 -24 23 -6 28 -8 30
-17 14 -14 -24 -32 -10 -25 19 5 18 2 24 -9 24 -10 0 -15 -7 -13 -17 1 -10 -1
-24 -6 -31 -4 -7 -3 -25 2 -40 6 -15 13 -40 17 -55 l6 -29 -28 26 c-15 14 -31
26 -35 26 -11 0 -10 -14 3 -27 21 -21 -7 -22 -66 -2 -32 10 -69 19 -82 19 -13
0 -26 7 -29 15 -4 10 -13 13 -25 10 -11 -4 -19 -2 -19 4 0 6 5 11 10 11 6 0
10 5 10 11 0 8 -4 8 -14 0 -11 -9 -19 -9 -35 1 -12 7 -21 16 -21 20 0 5 -8 8
-17 8 -23 0 -53 29 -46 46 3 8 0 14 -6 14 -6 0 -11 -4 -11 -10 0 -16 -17 -12
-24 5 -10 26 5 105 20 105 11 0 11 5 2 25 -20 44 0 53 111 52 80 -1 101 2 115
16 20 20 56 22 75 5 11 -10 14 -10 18 0 10 27 18 9 18 -42 0 -30 -3 -50 -6
-45 -3 6 -10 5 -16 -3 -8 -10 -3 -19 18 -36 l29 -24 0 41 c0 35 3 41 21 41 15
0 19 -5 15 -15 -5 -15 19 -85 30 -85 4 0 4 15 0 33 l-6 32 19 -23 c11 -12 22
-18 25 -13 4 5 1 11 -5 13 -7 2 -9 13 -5 25 5 15 13 19 26 16 14 -4 20 0 20
12 0 15 -6 17 -40 11 -38 -6 -42 -4 -58 24 -9 16 -22 29 -29 27 -6 -1 -12 3
-12 8 0 6 15 9 34 7 26 -3 35 0 35 11 0 8 -7 18 -15 21 -9 3 -21 19 -26 36 -6
16 -16 28 -22 27 -12 -2 -26 57 -26 115 -1 25 6 43 20 57 22 21 18 41 -8 41
-9 0 -13 3 -10 7 4 3 -2 16 -13 28 -22 24 -18 57 6 48 8 -3 14 1 14 8 0 7 -3
9 -6 6 -4 -4 -19 2 -33 12 -20 14 -31 17 -45 9 -21 -12 -34 -2 -19 13 13 13 6
42 -8 34 -8 -5 -17 37 -18 83 0 30 26 40 43 16 13 -17 14 -17 20 4 4 12 12 22
17 22 6 0 9 8 8 18 -4 39 3 45 16 15 9 -22 21 -33 35 -33 24 0 25 8 5 34 -8
11 -15 28 -15 38 0 19 -26 25 -32 7 -2 -7 -9 -5 -17 5 -11 13 -11 16 1 16 17
0 58 41 58 59 0 16 16 31 65 61 74 45 75 48 75 166 0 80 -3 105 -12 101 -7 -2
-12 -11 -10 -19 1 -8 -15 -24 -38 -36 -22 -11 -40 -17 -40 -12 0 4 6 10 13 13
6 2 9 8 5 12 -4 4 -18 1 -30 -7 -39 -24 -87 -23 -114 3 -27 26 -31 49 -9 49 9
0 18 7 21 15 4 8 16 15 28 15 12 0 31 7 42 15 17 13 17 14 2 15 -10 0 -18 5
-18 10 0 6 -9 10 -21 10 -16 0 -20 -4 -14 -17 5 -14 4 -15 -6 -6 -8 8 -18 9
-31 2 -10 -5 -24 -7 -30 -3 -7 5 -9 1 -6 -12 4 -16 -1 -19 -31 -22 -105 -7
-132 -12 -155 -27 -28 -19 -34 -40 -13 -49 9 -3 7 -9 -5 -19 -23 -19 -23 -27
2 -27 26 0 25 -15 0 -43 -11 -12 -18 -27 -16 -33 3 -7 -2 -18 -10 -24 -8 -7
-13 -20 -13 -29 1 -13 2 -13 6 2 2 9 11 17 19 17 8 0 13 4 9 9 -3 6 4 15 15
21 25 13 27 -5 5 -37 -10 -14 -12 -24 -5 -28 15 -9 12 -45 -3 -45 -7 0 -18 5
-25 12 -9 9 -12 6 -12 -14 0 -23 -5 -26 -40 -30 -22 -2 -45 1 -51 7 -8 7 -13
6 -16 -2 -3 -7 -9 -13 -14 -13 -12 0 -12 40 1 41 6 1 14 2 19 3 23 3 19 14 -9
26 -16 7 -27 17 -24 22 4 6 1 14 -5 18 -16 9 4 89 24 96 8 3 17 21 21 40 3 19
10 34 15 34 5 0 6 7 2 15 -3 9 1 21 9 28 11 10 12 22 3 67 -7 33 -14 50 -19
42 -4 -7 -4 -22 0 -35 6 -20 5 -21 -11 -7 -10 8 -30 15 -44 15 -28 0 -28 3
-15 82 5 31 4 32 -29 31 -25 -1 -34 -6 -33 -17 0 -9 -5 -15 -11 -14 -7 2 -13
-2 -13 -7 0 -6 5 -10 10 -10 6 0 10 -5 10 -11 0 -6 -8 -8 -19 -4 -12 4 -21 0
-25 -11 -5 -12 -2 -15 11 -10 9 4 20 1 25 -6 6 -10 10 -10 18 2 8 13 10 13 10
-1 0 -17 -25 -42 -52 -52 -20 -7 -24 3 -7 20 8 8 5 13 -11 18 -17 5 -29 1 -47
-19 -20 -22 -28 -25 -39 -15 -8 6 -14 22 -14 35 0 13 -4 24 -10 24 -5 0 -10 5
-10 11 0 8 4 8 14 0 10 -8 16 -9 21 -1 10 16 33 12 38 -7 4 -15 5 -14 6 3 2
39 104 100 151 90 14 -2 34 2 45 10 18 13 18 15 3 31 -14 13 -20 14 -32 4 -11
-9 -15 -9 -19 1 -4 8 -6 7 -6 -4 -1 -25 -21 -23 -21 2 0 11 -4 20 -10 20 -5 0
-7 7 -4 15 4 8 1 15 -5 15 -6 0 -11 7 -11 15 0 20 -30 19 -92 -5 -29 -11 -54
-20 -55 -20 -2 0 -3 9 -3 20 0 11 6 20 14 20 8 0 18 5 21 10 3 6 -3 10 -15 10
-26 0 -48 -49 -28 -61 24 -15 -23 -48 -75 -53 -44 -4 -47 -3 -47 19 0 15 -11
33 -30 47 -34 25 -37 35 -12 41 9 3 -16 4 -57 4 -49 -1 -76 -6 -79 -14 -2 -7
3 -13 12 -13 9 0 13 -6 10 -15 -4 -9 3 -16 19 -20 25 -7 43 -40 26 -51 -5 -3
-18 -3 -28 1 -10 3 -23 -1 -30 -9 -7 -8 -19 -12 -27 -9 -19 7 -18 23 2 23 23
0 13 34 -11 37 -11 2 -14 0 -8 -3 10 -4 10 -9 -1 -20 -8 -8 -19 -14 -24 -14
-16 0 -63 50 -57 60 10 16 -24 24 -41 9 -13 -11 -17 -10 -26 4 -16 30 -29 8
-13 -23 8 -16 15 -36 15 -44 0 -20 19 -24 59 -14 21 6 37 6 43 0 15 -15 -1
-34 -23 -27 -11 4 -27 1 -35 -6 -11 -9 -21 -9 -39 -1 -14 6 -32 9 -40 5 -13
-4 -15 0 -9 21 8 33 -4 33 -31 0 -14 -17 -33 -27 -62 -31 -38 -5 -45 -2 -72
28 -23 25 -31 29 -31 16 0 -9 5 -17 10 -17 19 0 9 -35 -15 -53 l-25 -18 4 55
c3 31 1 58 -4 61 -18 11 2 32 30 33 20 0 30 -4 30 -14 0 -10 12 -14 38 -14 64
0 78 8 79 44 1 31 0 32 -48 34 -53 2 -61 -8 -29 -35 27 -23 25 -33 -6 -33 -21
0 -24 3 -19 20 9 29 -12 50 -51 50 -26 0 -33 -4 -36 -22 -2 -13 -7 -22 -13
-20 -5 2 -9 12 -7 22 4 23 -8 26 -26 8 -9 -9 -12 -9 -12 3 0 11 -2 12 -9 0 -6
-9 -11 -10 -15 -2 -10 16 -95 14 -112 -3 -12 -13 -19 -13 -49 0 -49 20 -55 18
-55 -18 0 -23 -3 -29 -9 -19 -5 7 -6 22 -4 32 4 14 0 19 -15 19 -15 0 -22 -8
-25 -27 l-4 -28 -2 28 -1 27 -91 0 -90 0 -10 -30 c-8 -22 -17 -30 -34 -30 -18
0 -25 7 -30 30 -6 29 -20 37 -40 22z m155 -12 c0 -5 -4 -10 -10 -10 -5 0 -10
5 -10 10 0 6 5 10 10 10 6 0 10 -4 10 -10z m340 -39 c0 -11 4 -21 9 -23 5 -1
12 -16 15 -33 l6 -30 -12 27 c-7 16 -19 30 -29 33 -11 4 -15 12 -12 25 7 26
23 26 23 1z m-1485 -21 c3 -5 1 -10 -4 -10 -6 0 -11 5 -11 10 0 6 2 10 4 10 3
0 8 -4 11 -10z m1465 -25 c0 -8 -6 -15 -14 -15 -8 0 -17 -6 -19 -12 -3 -7 -6
-4 -6 8 -1 11 2 24 6 27 12 13 33 7 33 -8z m-1445 -54 c3 -6 -1 -11 -9 -11
-18 0 -32 43 -20 62 5 8 10 4 15 -14 4 -15 10 -31 14 -37z m1103 36 c2 -10 -3
-17 -12 -17 -18 0 -29 16 -21 31 9 14 29 6 33 -14z m190 -35 c0 -24 -3 -31 -9
-21 -5 8 -9 30 -9 49 0 24 3 31 9 21 5 -8 9 -30 9 -49z m229 26 c-3 -7 -5 -2
-5 12 0 14 2 19 5 13 2 -7 2 -19 0 -25z m1003 2 c0 -5 -5 -10 -11 -10 -5 0 -7
5 -4 10 3 6 8 10 11 10 2 0 4 -4 4 -10z m-930 -16 c0 -9 -8 -13 -22 -11 -31 5
-34 25 -3 25 14 0 25 -6 25 -14z m-14 -57 c8 3 14 1 14 -5 0 -10 -36 -23 -43
-15 -3 2 -2 14 1 26 5 17 7 18 10 5 2 -10 9 -15 18 -11z m844 13 c0 -5 -4 -10
-10 -10 -5 0 -10 5 -10 10 0 6 5 10 10 10 6 0 10 -4 10 -10z m-1290 -20 c0 -5
-4 -10 -10 -10 -5 0 -10 5 -10 10 0 6 5 10 10 10 6 0 10 -4 10 -10z m540 -15
c-7 -9 -15 -13 -17 -11 -6 6 20 36 26 30 2 -2 -2 -10 -9 -19z m-276 -11 c4
-10 1 -14 -6 -12 -15 5 -23 28 -10 28 5 0 13 -7 16 -16z m-24 -24 c0 -5 -9
-10 -19 -10 -11 0 -23 5 -26 10 -4 6 5 10 19 10 14 0 26 -4 26 -10z m1008 -51
c-2 -6 -8 -10 -13 -10 -5 0 -11 4 -13 10 -2 6 4 11 13 11 9 0 15 -5 13 -11z
m117 -23 c12 -12 12 -15 -2 -20 -19 -8 -38 8 -29 23 9 14 15 14 31 -3z m115
-13 c-1 -24 -2 -26 -11 -10 -5 9 -7 22 -4 27 10 17 15 11 15 -17z m-550 1 c0
-2 -9 -4 -21 -4 -11 0 -18 4 -14 10 5 8 35 3 35 -6z m504 -51 c-10 -7 -15 -13
-11 -13 12 0 -23 -48 -40 -54 -28 -11 -35 9 -17 48 10 20 21 36 26 36 4 0 10
0 13 0 3 -1 13 7 23 16 16 17 17 17 21 -1 2 -10 -5 -25 -15 -32z m-361 20 c12
3 33 0 46 -7 24 -13 24 -14 3 -25 -11 -6 -28 -11 -36 -11 -9 0 -13 -6 -10 -14
3 -7 -2 -16 -10 -19 -10 -4 -16 -1 -16 8 0 19 -19 19 -26 1 -3 -8 -14 -14 -25
-13 -29 2 -26 54 4 68 l22 10 -22 -5 c-13 -2 -23 -1 -23 3 0 16 13 19 41 9 16
-5 39 -8 52 -5z m247 9 c0 -5 -9 -19 -20 -32 -11 -13 -20 -29 -20 -37 0 -7 -7
-13 -15 -13 -13 0 -14 4 -4 23 10 19 49 64 57 66 1 1 2 -3 2 -7z m-140 -18 c0
-2 -7 -4 -15 -4 -8 0 -15 4 -15 10 0 5 7 7 15 4 8 -4 15 -8 15 -10z m-470 -20
c13 -34 13 -39 -5 -24 -8 7 -12 17 -8 23 4 6 -2 8 -18 4 -13 -3 -35 -3 -49 0
l-25 7 30 7 c54 12 65 10 75 -17z m100 6 c13 -8 13 -10 -2 -10 -9 0 -20 5 -23
10 -8 13 5 13 25 0z m137 -22 c-3 -8 -6 -5 -6 6 -1 11 2 17 5 13 3 -3 4 -12 1
-19z m-193 -34 c8 -21 8 -24 -3 -24 -5 0 -11 9 -14 20 -6 24 8 27 17 4z m93
10 c-3 -3 -12 -4 -19 -1 -8 3 -5 6 6 6 11 1 17 -2 13 -5z m-147 -28 c0 -3 -4
-8 -10 -11 -5 -3 -10 -1 -10 4 0 6 5 11 10 11 6 0 10 -2 10 -4z m1263 -3 c-7
-2 -21 -2 -30 0 -10 3 -4 5 12 5 17 0 24 -2 18 -5z m-575 -36 c12 -13 20 -26
16 -29 -3 -3 11 -11 30 -18 20 -6 36 -16 36 -22 0 -6 -7 -7 -16 -4 -9 3 -24 6
-35 6 -11 0 -23 10 -28 23 -5 13 -16 29 -25 36 -17 14 -21 31 -8 31 5 0 18
-10 30 -23z m-661 -19 c-3 -7 -5 -2 -5 12 0 14 2 19 5 13 2 -7 2 -19 0 -25z
m-27 -12 c0 -8 -8 -20 -17 -27 -15 -12 -16 -12 -10 4 4 10 7 25 7 33 0 9 5 12
10 9 6 -3 10 -12 10 -19z m770 8 c0 -2 -9 -4 -21 -4 -11 0 -18 4 -14 10 5 8
35 3 35 -6z m-506 -9 c3 -9 0 -15 -9 -15 -9 0 -12 6 -9 15 4 8 7 15 9 15 2 0
5 -7 9 -15z m196 5 c0 -5 -4 -10 -10 -10 -5 0 -10 5 -10 10 0 6 5 10 10 10 6
0 10 -4 10 -10z m620 -42 c0 -25 -16 -22 -24 5 -11 41 -7 54 9 33 8 -11 15
-28 15 -38z m-713 36 c-3 -3 -12 -4 -19 -1 -8 3 -5 6 6 6 11 1 17 -2 13 -5z
m743 -9 c0 -12 5 -13 18 -7 9 5 38 12 63 14 42 5 46 3 42 -13 -6 -21 -20 -23
-58 -9 -20 8 -27 7 -31 -4 -3 -9 -12 -12 -22 -9 -11 5 -14 2 -9 -10 4 -11 1
-17 -8 -17 -10 0 -15 11 -15 35 0 19 5 35 10 35 6 0 10 -7 10 -15z m-900 -40
c-10 -12 -9 -15 3 -15 9 0 19 5 22 10 3 6 15 10 26 10 11 0 17 -4 14 -10 -3
-5 -3 -10 2 -10 14 0 29 15 37 35 7 19 8 18 22 -8 18 -33 10 -54 -14 -35 -14
12 -15 9 -9 -19 7 -37 -6 -51 -31 -31 -20 15 -59 38 -67 38 -3 0 -5 -8 -5 -18
0 -14 -7 -17 -39 -14 -32 3 -40 0 -44 -15 -3 -15 -6 -14 -15 9 -6 14 -15 29
-21 32 -16 10 -1 36 21 36 17 0 19 -2 7 -16 -11 -13 -9 -14 17 -8 35 8 43 14
21 14 -10 0 -14 5 -11 15 4 8 10 12 15 9 5 -3 19 2 31 11 26 17 38 3 18 -20z
m243 5 c3 -11 1 -20 -4 -20 -5 0 -9 9 -9 20 0 11 2 20 4 20 2 0 6 -9 9 -20z
m-2046 4 c-3 -3 -12 -4 -19 -1 -8 3 -5 6 6 6 11 1 17 -2 13 -5z m1663 -4 c0
-5 -7 -10 -15 -10 -8 0 -15 5 -15 10 0 6 7 10 15 10 8 0 15 -4 15 -10z m960 0
c0 -5 -4 -10 -10 -10 -5 0 -10 5 -10 10 0 6 5 10 10 10 6 0 10 -4 10 -10z
m-1035 -12 c14 -6 25 -19 25 -30 0 -10 7 -18 15 -18 8 0 20 -9 27 -20 7 -11
18 -20 25 -20 7 0 13 -4 13 -10 0 -14 -17 -13 -26 2 -5 8 -10 7 -18 -5 -8 -10
-21 -13 -38 -10 -22 4 -28 12 -33 45 -7 40 -14 45 -19 12 -3 -21 -26 -32 -26
-12 0 8 5 19 12 26 15 15 3 16 -22 2 -14 -7 -20 -6 -24 7 -4 9 -5 17 -4 18 34
26 58 29 93 13z m1205 8 c0 -11 -19 -15 -25 -6 -3 5 1 10 9 10 9 0 16 -2 16
-4z m-443 -41 c-4 -8 -16 -15 -28 -15 -21 0 -21 0 2 19 26 21 35 20 26 -4z
m283 11 c0 -11 -19 -15 -25 -6 -3 5 1 10 9 10 9 0 16 -2 16 -4z m-80 -61 c-8
-9 -6 -14 5 -19 11 -4 15 2 15 22 l0 26 22 -21 c17 -18 19 -25 9 -36 -9 -12
-9 -16 1 -20 7 -2 9 -8 5 -13 -4 -4 -17 -3 -27 4 -11 7 -22 12 -26 12 -10 0 1
-21 11 -22 6 0 18 -4 29 -10 13 -7 15 -13 7 -21 -6 -6 -11 -19 -11 -28 0 -9
-6 -22 -13 -28 -8 -6 -19 -35 -27 -64 l-12 -53 -57 -1 c-31 -1 -63 -3 -71 -5
-8 -1 -14 2 -13 9 2 7 -6 17 -17 23 -21 11 -25 4 -20 -47 1 -12 -3 -30 -9 -40
-11 -21 -17 -11 -25 42 -5 35 1 -65 6 -110 2 -16 1 -41 -3 -55 -6 -22 -7 -20
-8 12 -1 43 -20 90 -32 82 -5 -3 -9 1 -9 9 0 10 -7 13 -20 10 -28 -7 -25 -16
10 -31 27 -13 30 -18 29 -60 0 -26 -3 -40 -6 -32 -4 8 -12 20 -19 27 -7 7 -14
18 -16 24 -2 7 -18 12 -36 11 -18 0 -32 4 -32 9 0 5 5 8 11 7 19 -5 21 19 3
36 -9 9 -14 19 -11 22 3 3 -3 14 -14 25 -21 21 -69 25 -87 7 -7 -7 -12 -8 -12
-2 0 5 11 18 25 28 19 14 22 22 14 32 -8 10 -5 12 13 9 37 -7 72 30 64 66 -5
26 -3 29 20 29 30 0 69 28 69 50 0 9 9 15 22 14 12 0 21 4 20 10 -3 14 103 67
117 59 17 -11 69 -3 85 12 18 17 36 8 21 -10z m235 15 c-3 -5 -10 -10 -16 -10
-5 0 -9 5 -9 10 0 6 7 10 16 10 8 0 12 -4 9 -10z m-140 -10 c3 -5 1 -10 -4
-10 -6 0 -11 5 -11 10 0 6 2 10 4 10 3 0 8 -4 11 -10z m-785 -10 c0 -5 -7 -10
-16 -10 -8 0 -12 5 -9 10 3 6 10 10 16 10 5 0 9 -4 9 -10z m939 -7 c3 -2 -1
-9 -7 -15 -7 -7 -12 -20 -12 -29 0 -29 -22 -33 -41 -8 -24 31 -24 37 4 42 15
3 11 5 -13 6 -25 1 -31 4 -21 10 13 8 79 4 90 -6z m-1239 -3 c0 -5 -2 -10 -4
-10 -3 0 -8 5 -11 10 -3 6 -1 10 4 10 6 0 11 -4 11 -10z m1121 -32 c-4 -13
-11 -35 -15 -50 -5 -22 -3 -26 9 -21 9 3 14 12 11 20 -4 9 -1 13 6 11 20 -7
22 -48 3 -48 -8 0 -27 -7 -40 -16 -24 -16 -25 -16 -25 8 0 36 20 91 38 106 21
17 23 15 13 -10z m-676 2 c-3 -5 -10 -10 -16 -10 -5 0 -9 5 -9 10 0 6 7 10 16
10 8 0 12 -4 9 -10z m-105 -64 c0 -3 -4 -8 -10 -11 -5 -3 -10 -1 -10 4 0 6 5
11 10 11 6 0 10 -2 10 -4z m881 -29 c-11 -12 -23 -19 -25 -16 -9 9 25 50 36
43 6 -4 2 -14 -11 -27z m-101 -27 c0 -5 -4 -10 -10 -10 -5 0 -10 5 -10 10 0 6
5 10 10 10 6 0 10 -4 10 -10z m-935 -19 c-3 -6 -14 -11 -23 -11 -13 0 -13 2 4
14 21 15 30 14 19 -3z m912 -21 c1 -11 -2 -20 -8 -20 -5 0 -9 9 -9 20 0 11 4
20 8 20 4 0 8 -9 9 -20z m-688 -3 c6 -8 8 -17 4 -20 -3 -4 1 -7 10 -7 22 0 31
-18 17 -35 -10 -12 -10 -18 -1 -29 15 -18 -5 -34 -21 -18 -6 6 -16 8 -23 6 -7
-3 -15 6 -19 20 -3 14 -11 26 -16 26 -14 0 -12 -12 6 -38 19 -28 11 -41 -12
-21 -14 11 -18 12 -22 1 -3 -10 -8 -9 -23 4 -25 22 -24 28 6 58 14 14 25 34
25 46 0 15 6 20 29 20 16 0 34 -6 40 -13z m71 -7 c8 -5 11 -12 8 -16 -10 -9
-38 3 -38 16 0 12 10 13 30 0z m-335 -20 c3 -5 1 -10 -4 -10 -6 0 -11 5 -11
10 0 6 2 10 4 10 3 0 8 -4 11 -10z m982 -12 c-3 -8 -6 -5 -6 6 -1 11 2 17 5
13 3 -3 4 -12 1 -19z m-597 2 c0 -5 -5 -10 -11 -10 -5 0 -7 5 -4 10 3 6 8 10
11 10 2 0 4 -4 4 -10z m373 -47 c-7 -2 -19 -2 -25 0 -7 3 -2 5 12 5 14 0 19
-2 13 -5z m271 -8 c3 -8 1 -15 -4 -15 -6 0 -10 7 -10 15 0 8 2 15 4 15 2 0 6
-7 10 -15z m-691 -35 c-6 -21 -21 -35 -29 -27 -6 6 18 47 27 47 4 0 5 -9 2
-20z m-283 -44 c0 -3 -4 -8 -10 -11 -5 -3 -10 -1 -10 4 0 6 5 11 10 11 6 0 10
-2 10 -4z m405 -6 c-3 -5 -13 -10 -21 -10 -8 0 -12 5 -9 10 3 6 13 10 21 10 8
0 12 -4 9 -10z m-42 -34 c4 -10 0 -12 -14 -9 -10 3 -16 9 -13 14 8 13 21 11
27 -5z m52 -16 c3 -5 -1 -10 -9 -10 -8 0 -18 5 -21 10 -3 6 1 10 9 10 8 0 18
-4 21 -10z m-82 -37 l5 -27 -19 25 c-17 22 -19 23 -20 4 0 -11 -3 -14 -6 -7
-6 15 15 44 27 37 4 -3 10 -17 13 -32z m163 29 c15 -10 30 -57 15 -48 -6 4
-11 1 -11 -8 0 -23 17 -28 35 -10 9 9 19 14 22 10 9 -8 -18 -37 -28 -30 -5 3
-9 0 -9 -5 0 -6 -6 -11 -14 -11 -11 0 -14 -14 -13 -58 1 -35 -4 -70 -12 -85
-13 -24 -13 -29 2 -40 12 -9 16 -23 13 -57 -5 -55 -15 -90 -27 -90 -5 0 -9 -6
-9 -13 0 -19 -61 -52 -90 -48 -13 2 -35 15 -48 30 -22 24 -23 25 -17 4 5 -20
3 -23 -21 -23 -22 0 -24 3 -15 14 8 10 9 16 1 21 -6 3 -8 11 -4 16 3 6 -2 17
-12 25 -14 11 -15 17 -6 20 6 3 12 12 12 19 0 7 -6 16 -12 19 -7 3 -1 3 13 1
20 -2 30 3 39 21 14 26 25 30 35 14 10 -17 44 -11 57 10 7 11 18 20 25 20 15
0 17 16 3 25 -5 3 -10 26 -10 50 0 24 -4 45 -9 47 -5 2 -3 24 4 50 8 31 8 49
2 51 -6 2 -7 9 -3 15 12 20 28 2 21 -25 -4 -19 0 -31 15 -45 12 -11 22 -18 24
-17 4 7 26 60 26 64 0 2 -9 1 -21 -2 -19 -5 -20 -4 -8 16 8 11 17 21 21 21 5
0 8 7 8 15 0 8 -4 15 -10 15 -5 0 -10 -7 -10 -15 0 -19 -7 -19 -26 -1 -8 8
-14 17 -14 20 0 9 53 7 66 -2z m-3356 -10 c0 -11 -22 -32 -32 -32 -5 0 -4 9 2
20 11 20 30 28 30 12z m3905 -21 c3 -5 1 -12 -5 -16 -5 -3 -10 1 -10 9 0 18 6
21 15 7z m-1015 -87 c0 -8 -4 -14 -9 -14 -11 0 -22 26 -14 34 9 9 23 -3 23
-20z m1057 -76 c-3 -8 -6 -5 -6 6 -1 11 2 17 5 13 3 -3 4 -12 1 -19z m-1379
-27 c3 -8 -1 -12 -9 -9 -7 2 -15 10 -17 17 -3 8 1 12 9 9 7 -2 15 -10 17 -17z
m52 9 c0 -5 -2 -10 -4 -10 -3 0 -8 5 -11 10 -3 6 -1 10 4 10 6 0 11 -4 11 -10z
m50 -35 c0 -5 -5 -3 -10 5 -5 8 -10 20 -10 25 0 6 5 3 10 -5 5 -8 10 -19 10
-25z m594 -24 c-6 -7 -11 2 -17 34 l-6 30 13 -30 c8 -16 12 -32 10 -34z m706
23 c0 -21 -17 -17 -23 5 -3 14 -1 18 9 14 8 -3 14 -11 14 -19z m-1312 -21 c13
-14 21 -32 18 -39 -3 -8 -1 -14 4 -14 5 0 7 -7 4 -15 -4 -8 -1 -15 5 -15 6 0
11 -4 11 -10 0 -17 -26 -11 -55 11 -20 17 -29 19 -35 9 -5 -8 -9 -9 -14 -1 -4
6 -2 11 3 11 6 0 11 6 11 14 0 15 -27 29 -40 21 -5 -3 -11 -2 -14 3 -2 4 4 13
15 20 11 7 19 8 19 2 0 -5 7 -7 15 -4 8 4 15 2 15 -2 0 -5 12 -22 27 -39 14
-16 23 -23 20 -15 -16 41 -33 70 -43 70 -5 0 -19 7 -30 16 -18 15 -18 15 11 9
17 -3 40 -17 53 -32z m367 7 c16 -18 20 -19 27 -5 12 21 25 19 38 -5 14 -26 4
-45 -15 -30 -13 11 -29 -2 -30 -25 0 -9 -4 -10 -40 -6 -8 0 -15 8 -15 17 0 14
3 14 15 4 9 -7 18 -10 21 -7 7 7 1 23 -22 55 -20 28 -4 29 21 2z m975 -11 c0
-5 -4 -9 -10 -9 -5 0 -10 7 -10 16 0 8 5 12 10 9 6 -3 10 -10 10 -16z m-863
-51 c-3 -8 -6 -5 -6 6 -1 11 2 17 5 13 3 -3 4 -12 1 -19z m-47 -18 c0 -11 -4
-20 -10 -20 -5 0 -10 9 -10 20 0 11 5 20 10 20 6 0 10 -9 10 -20z m-690 -21
c0 -5 -4 -9 -10 -9 -5 0 -10 7 -10 16 0 8 5 12 10 9 6 -3 10 -10 10 -16z m246
-26 c-7 -7 -26 7 -26 19 0 6 6 6 15 -2 9 -7 13 -15 11 -17z m64 -3 c-24 -15
-36 -11 -14 4 10 8 21 12 24 10 2 -3 -2 -9 -10 -14z m-286 -6 c9 -24 2 -26
-12 -4 -7 11 -8 20 -3 20 5 0 12 -7 15 -16z m86 -37 c0 -5 -4 -5 -10 -2 -5 3
-10 14 -10 23 0 15 2 15 10 2 5 -8 10 -19 10 -23z m71 23 c5 0 9 -7 9 -15 0
-8 5 -15 11 -15 6 0 9 -7 5 -15 -6 -17 5 -20 20 -5 6 6 16 -3 27 -23 l19 -32
-24 21 c-12 12 -28 20 -34 17 -6 -2 -19 9 -29 24 -10 15 -26 34 -34 41 -14 12
-14 13 2 8 10 -3 23 -6 28 -6z m-191 -20 c0 -5 -4 -10 -10 -10 -5 0 -10 5 -10
10 0 6 5 10 10 10 6 0 10 -4 10 -10z m20 -35 c11 -13 10 -14 -4 -9 -9 3 -16
10 -16 15 0 13 6 11 20 -6z m998 -38 c2 -12 -3 -17 -20 -17 -13 0 -18 -4 -12
-8 18 -12 44 -73 44 -103 0 -58 -66 -148 -111 -150 -13 0 -19 -3 -12 -5 19 -8
3 -34 -21 -34 -13 0 -26 3 -30 7 -4 4 -19 9 -34 11 -15 2 -29 8 -33 13 -7 11
-37 2 -61 -19 -10 -8 -18 -10 -18 -5 0 6 7 16 15 23 17 14 20 40 5 40 -5 0
-10 12 -10 28 0 21 2 24 10 12 8 -12 10 -11 10 7 0 12 -4 24 -8 27 -10 6 -3
76 8 76 26 0 36 -13 32 -41 -3 -24 -1 -28 12 -23 9 3 16 1 16 -5 0 -6 -4 -11
-10 -11 -5 0 -10 -7 -10 -16 0 -12 8 -14 32 -10 35 5 69 38 46 44 -39 11 -41
12 -28 27 10 12 9 16 -4 21 -9 3 -13 10 -10 15 3 5 9 7 14 4 5 -3 12 1 17 8
12 22 53 32 53 13 0 -8 5 -18 12 -22 7 -4 8 -3 4 5 -12 19 4 51 25 51 22 0 24
11 7 28 -9 9 -7 12 9 12 12 0 25 5 28 11 9 14 29 6 33 -14z m-700 -52 c-3 -3
-9 2 -12 12 -6 14 -5 15 5 6 7 -7 10 -15 7 -18z m-2741 -132 c-9 -15 -18 -40
-22 -55 -4 -20 -12 -28 -26 -28 l-20 0 20 29 c12 16 21 34 21 40 0 13 32 52
38 46 2 -2 -3 -16 -11 -32z m3616 22 c4 -8 2 -17 -3 -20 -6 -4 -10 -4 -10 -1
0 2 -3 11 -6 20 -3 9 -2 16 4 16 5 0 12 -7 15 -15z m-496 -27 c-3 -8 -6 -5 -6
6 -1 11 2 17 5 13 3 -3 4 -12 1 -19z m993 2 c0 -5 -10 -10 -22 -10 -19 0 -20
2 -8 10 19 13 30 13 30 0z m-465 -30 c3 -5 1 -10 -4 -10 -6 0 -11 5 -11 10 0
6 2 10 4 10 3 0 8 -4 11 -10z m330 -20 c3 -5 1 -10 -4 -10 -6 0 -11 5 -11 10
0 6 2 10 4 10 3 0 8 -4 11 -10z m-3855 -51 c0 -5 -4 -9 -10 -9 -5 0 -10 7 -10
16 0 8 5 12 10 9 6 -3 10 -10 10 -16z m20 -19 c0 -11 -4 -20 -9 -20 -5 0 -7 9
-4 20 3 11 7 20 9 20 2 0 4 -9 4 -20z m-200 6 c0 -3 -4 -8 -10 -11 -5 -3 -10
-1 -10 4 0 6 5 11 10 11 6 0 10 -2 10 -4z m3114 -23 c2 -10 13 -19 24 -21 22
-3 32 -22 12 -22 -5 0 -10 -11 -10 -25 0 -25 -14 -33 -25 -15 -3 6 -17 10 -31
10 -15 0 -24 6 -24 16 0 8 -4 12 -10 9 -5 -3 -10 1 -10 9 0 10 6 13 15 10 18
-7 21 21 3 33 -9 5 -3 10 17 13 35 7 36 7 39 -17z m429 -58 c-2 -11 -1 -14 3
-7 9 20 41 14 47 -9 4 -16 12 -20 33 -17 42 5 41 -20 0 -28 -29 -5 -36 -11
-36 -29 0 -31 30 -37 53 -11 9 10 17 23 17 28 0 4 5 8 10 8 15 0 12 -33 -6
-59 -10 -13 -13 -26 -7 -30 5 -3 10 -18 11 -32 1 -21 -5 -29 -28 -39 -24 -10
-28 -15 -19 -27 7 -7 14 -11 17 -8 3 2 11 -3 18 -13 13 -16 14 -15 20 6 3 12
11 22 16 22 5 0 7 -9 3 -19 -3 -11 -1 -22 5 -26 8 -5 8 -11 -1 -21 -15 -18 -3
-32 13 -16 7 7 18 12 26 12 8 0 21 8 28 18 12 16 13 15 14 -5 0 -13 -4 -23
-10 -23 -5 0 -10 -7 -10 -16 0 -24 25 -11 28 15 5 35 46 24 50 -13 5 -39 -16
-78 -39 -71 -10 3 -19 -1 -23 -10 -3 -9 -11 -13 -17 -9 -8 4 -9 0 -4 -15 4
-13 2 -21 -5 -21 -6 0 -8 -10 -4 -25 5 -21 3 -25 -15 -25 -16 0 -21 -6 -21
-25 0 -14 -4 -25 -10 -25 -5 0 -10 -5 -10 -12 0 -6 -7 -19 -15 -29 -15 -15
-14 -17 12 -23 15 -4 36 -9 47 -13 16 -4 18 -1 14 21 -5 26 5 35 17 16 3 -5
15 -10 26 -10 23 0 25 -15 3 -24 -8 -3 -13 -10 -10 -15 9 -14 -25 -23 -40 -10
-11 9 -15 7 -20 -6 -4 -9 -17 -21 -30 -26 -27 -10 -29 -21 -9 -64 13 -29 13
-29 14 -6 2 42 11 16 17 -43 l5 -56 -30 0 c-31 0 -44 -23 -18 -33 7 -4 6 -6
-5 -6 -9 -1 -19 5 -22 12 -3 8 -8 7 -16 -5 -6 -10 -18 -18 -25 -18 -8 0 -15
-4 -15 -10 0 -5 15 -10 34 -10 28 0 35 -4 38 -22 2 -13 10 -23 18 -23 17 0 23
-62 7 -82 -6 -9 -4 -15 7 -19 17 -7 22 -34 6 -34 -19 0 -10 -18 13 -24 14 -4
18 -9 10 -14 -17 -11 -27 -59 -14 -66 6 -4 11 -15 11 -24 0 -13 -2 -14 -9 -4
-5 9 -10 -3 -15 -34 -4 -30 -2 -52 5 -61 7 -7 9 -16 6 -20 -4 -3 -2 -14 4 -25
7 -13 7 -23 0 -31 -7 -9 -5 -23 6 -46 14 -28 14 -34 2 -42 -11 -7 -11 -9 4 -9
9 0 17 -5 17 -11 0 -7 -7 -8 -17 -4 -10 4 -24 9 -30 12 -7 3 -13 -2 -13 -11 0
-10 11 -19 30 -22 34 -7 40 -33 9 -41 -13 -4 -19 -12 -17 -26 4 -28 28 -34 28
-8 0 33 25 25 47 -15 10 -18 7 -23 -18 -38 -19 -11 -29 -25 -29 -41 0 -17 -8
-26 -31 -34 -17 -6 -28 -15 -25 -20 4 -5 2 -12 -4 -16 -5 -3 -10 -1 -10 4 0 6
-7 11 -16 11 -11 0 -14 -6 -9 -20 4 -14 2 -20 -9 -20 -8 0 -18 9 -21 20 -4 11
-15 20 -26 20 -18 0 -19 -2 -4 -30 21 -40 3 -39 -41 4 -20 20 -42 32 -50 29
-10 -4 -14 3 -14 26 0 33 -8 39 -28 19 -9 -9 -7 -17 9 -34 15 -16 17 -24 8
-29 -7 -5 -18 0 -28 12 -9 11 -23 23 -31 26 -12 4 -11 6 3 6 10 1 15 6 12 11
-4 6 -15 8 -26 5 -15 -5 -19 -1 -19 14 0 24 4 25 30 11 13 -7 21 -7 25 1 4 6
-2 13 -14 16 -12 3 -21 12 -21 20 0 8 4 12 9 8 5 -3 12 -1 16 5 6 9 -7 14 -27
11 -5 0 -8 3 -8 9 0 5 5 10 11 10 6 0 8 9 4 20 -5 15 -2 20 12 20 14 1 13 3
-7 14 -14 8 -28 12 -33 9 -14 -9 -57 7 -57 21 0 7 9 25 20 39 13 16 16 28 10
32 -18 11 -10 27 11 22 14 -4 23 1 29 16 7 17 9 18 9 5 1 -21 21 -24 21 -4 0
24 51 58 78 51 13 -3 31 0 39 6 12 10 16 10 24 -2 6 -10 9 -8 9 11 -1 14 -7
34 -16 45 -14 18 -16 19 -47 3 -17 -10 -44 -20 -60 -24 -15 -3 -30 -10 -32
-15 -3 -4 -12 -6 -20 -2 -8 3 -15 0 -15 -7 0 -7 -7 -10 -15 -6 -16 6 -19 2
-30 -48 -4 -20 -9 -26 -14 -17 -6 8 -10 2 -14 -18 -6 -28 -10 -31 -42 -31 -22
0 -34 4 -30 10 3 6 13 10 22 10 10 0 14 6 10 20 -3 11 0 20 6 20 7 1 6 6 -3
13 -27 22 -36 51 -29 92 8 50 2 67 -22 60 -25 -8 -24 11 1 25 11 6 20 17 20
25 0 11 12 15 40 15 24 0 40 5 40 12 0 6 11 1 25 -12 l26 -24 -28 -27 c-15
-14 -31 -25 -34 -23 -4 2 -9 -5 -12 -15 -5 -22 20 -64 33 -56 5 3 11 1 15 -5
7 -12 25 -4 25 11 0 5 -6 9 -14 9 -8 0 -16 13 -18 29 -3 22 -1 28 11 23 8 -3
12 -1 8 5 -7 11 27 53 43 53 5 0 12 -4 15 -10 10 -17 25 -11 34 13 11 27 6 34
-12 18 -9 -7 -23 -8 -38 -3 -22 8 -21 9 10 15 36 8 33 27 -5 27 -13 0 -24 6
-25 13 0 10 -2 10 -6 0 -8 -21 -33 -16 -26 5 9 24 20 30 48 24 15 -2 22 -9 18
-18 -9 -24 13 -15 27 11 10 19 10 27 1 39 -7 9 -8 16 -2 20 5 4 12 2 16 -4 14
-23 25 -8 23 33 -1 28 -9 51 -25 71 -17 20 -21 32 -14 39 6 6 11 19 11 29 0
10 7 18 15 18 9 0 15 9 15 24 0 35 -20 43 -21 9 l-1 -28 -8 25 c-13 40 -11 50
6 43 13 -5 15 -2 9 18 -4 12 -14 29 -21 37 -8 7 -14 20 -14 27 0 8 -13 15 -30
17 -30 3 -30 3 -15 32 19 35 19 36 -2 36 -17 1 -17 1 0 14 22 17 22 26 -3 26
-15 0 -19 6 -17 23 1 13 -3 21 -10 19 -8 -1 -13 8 -13 23 0 25 6 35 41 74 23
26 6 51 -33 51 -23 0 -29 -4 -24 -15 8 -22 -17 -18 -37 5 -9 11 -27 20 -39 21
l-23 0 23 9 c12 5 22 14 22 19 0 18 -19 22 -42 9 -13 -7 -30 -13 -38 -13 -8
-1 -14 -7 -12 -14 3 -17 -39 -4 -55 17 -10 12 -9 21 7 47 11 18 20 40 20 49 0
9 8 16 18 15 10 0 12 -3 5 -6 -20 -7 -15 -23 6 -23 15 0 39 28 29 35 -36 25
-54 35 -59 35 -4 0 -17 -17 -29 -37 -22 -37 -23 -78 -6 -168 5 -25 7 -90 5
-165 0 -8 0 -24 0 -35 0 -55 -6 -132 -11 -141 -4 -5 -8 -41 -10 -79 -2 -57 -7
-74 -25 -91 -14 -13 -23 -33 -23 -52 0 -67 -50 -118 -125 -127 -30 -4 -37 -2
-44 19 -6 14 -6 40 0 66 5 24 10 127 11 229 0 102 5 194 10 205 6 10 9 55 8
100 -6 250 -4 302 11 331 8 17 21 30 30 30 25 0 49 31 49 63 0 25 4 29 29 30
42 1 59 -24 63 -92 3 -53 5 -60 26 -61 25 -2 30 23 10 44 -11 10 -10 14 4 22
11 6 15 16 11 26 -5 12 -3 14 6 8 8 -4 17 -2 22 6 7 12 9 11 9 -1 -1 -8 -7
-24 -15 -34 -21 -27 -19 -46 5 -46 11 0 20 5 20 10 0 22 30 8 36 -16 6 -22 8
-24 16 -10 6 11 17 14 33 10 17 -4 25 -1 30 14 3 11 21 30 40 41 19 11 35 25
35 31 0 5 9 10 20 10 11 0 20 5 20 10 0 6 7 10 15 10 8 0 15 7 15 15 0 8 5 15
11 15 6 0 9 9 6 20 -3 11 -2 18 2 16 4 -3 13 -1 21 4 8 5 26 8 41 7 20 -2 25
-7 22 -22z m-3357 -22 c-10 -10 -19 5 -10 18 6 11 8 11 12 0 2 -7 1 -15 -2
-18z m3208 3 c-7 -17 -34 -23 -34 -6 0 9 32 31 38 26 1 -2 0 -11 -4 -20z
m-3419 -7 c-4 -5 -13 -9 -21 -9 -8 0 -14 -5 -14 -11 0 -5 -5 -7 -11 -3 -8 4
-4 13 12 25 23 17 45 16 34 -2z m3350 11 c-3 -5 -13 -10 -21 -10 -8 0 -14 5
-14 10 0 6 9 10 21 10 11 0 17 -4 14 -10z m-145 -40 c0 -5 -5 -10 -11 -10 -5
0 -7 5 -4 10 3 6 8 10 11 10 2 0 4 -4 4 -10z m914 -82 c-9 -14 -24 2 -24 25 1
21 1 21 15 3 8 -10 12 -23 9 -28z m-4074 24 c0 -13 -23 -32 -39 -32 -11 0 -10
4 4 20 19 21 35 26 35 12z m60 -24 c-1 -26 -3 -30 -10 -16 -6 9 -7 23 -4 32 9
25 14 19 14 -16z m3160 11 c0 -6 -4 -7 -10 -4 -5 3 -10 11 -10 16 0 6 5 7 10
4 6 -3 10 -11 10 -16z m840 -100 c0 -24 -23 -21 -28 4 -2 10 3 17 12 17 10 0
16 -9 16 -21z m-4020 -29 c0 -5 -2 -10 -4 -10 -3 0 -8 5 -11 10 -3 6 -1 10 4
10 6 0 11 -4 11 -10z m-30 -70 c0 -16 -4 -30 -8 -30 -5 0 -7 14 -4 30 2 17 6
30 8 30 2 0 4 -13 4 -30z m51 2 c7 2 15 -5 17 -14 4 -23 -21 -24 -42 -2 -20
20 -22 41 -2 25 8 -6 20 -10 27 -9z m3716 -134 c-3 -8 -6 -5 -6 6 -1 11 2 17
5 13 3 -3 4 -12 1 -19z m278 12 c3 -5 1 -10 -4 -10 -6 0 -11 5 -11 10 0 6 2
10 4 10 3 0 8 -4 11 -10z m-745 -185 c-7 -9 -15 -13 -17 -11 -7 7 7 26 19 26
6 0 6 -6 -2 -15z m685 5 c3 -5 1 -10 -4 -10 -6 0 -11 5 -11 10 0 6 2 10 4 10
3 0 8 -4 11 -10z m-865 -29 c0 -5 -7 -12 -16 -15 -14 -5 -15 -4 -4 9 14 17 20
19 20 6z m881 -24 c-10 -9 -11 -8 -5 6 3 10 9 15 12 12 3 -3 0 -11 -7 -18z
m-3860 -9 c5 -48 3 -63 -8 -61 -7 2 -10 -4 -7 -12 8 -19 -3 -19 -22 0 -9 8
-23 15 -31 15 -15 0 -14 -2 0 -18 15 -16 15 -21 2 -39 -9 -13 -12 -29 -6 -49
5 -18 10 -24 15 -16 9 14 36 16 36 2 0 -5 -7 -7 -15 -4 -10 4 -15 0 -15 -11 0
-9 -4 -13 -10 -10 -11 7 -60 -38 -60 -54 0 -5 -16 -15 -35 -21 -19 -6 -35 -18
-35 -26 0 -8 -7 -17 -15 -20 -8 -4 -15 -12 -15 -20 0 -10 -7 -13 -26 -8 -29 7
-47 -10 -38 -37 4 -14 -2 -16 -28 -14 -31 2 -33 5 -41 49 -6 38 -4 50 10 64
16 16 16 16 10 -1 -9 -25 3 -74 14 -56 5 8 22 12 42 11 l34 -3 -11 50 c-5 28
-14 51 -18 51 -4 0 -8 5 -8 10 0 16 21 12 43 -7 19 -17 19 -17 13 4 -4 12 -2
24 4 28 5 3 10 21 10 38 0 18 6 51 13 75 13 41 14 42 30 24 9 -10 14 -21 11
-24 -3 -3 -1 -9 5 -13 7 -4 11 5 11 24 0 21 -5 31 -15 31 -8 0 -15 5 -15 10 0
6 7 10 16 10 9 0 12 5 8 13 -4 6 2 4 13 -5 24 -22 49 -23 60 -4 7 13 45 34 66
35 4 1 8 -5 8 -11z m3069 -30 c0 -19 -2 -20 -10 -8 -13 19 -13 30 0 30 6 0 10
-10 10 -22z m-3455 -17 c43 12 95 -6 95 -33 0 -9 7 -24 16 -32 14 -15 14 -16
0 -16 -9 0 -16 -8 -16 -17 0 -15 -2 -14 -15 3 -14 18 -14 17 -15 -13 0 -18 -4
-33 -10 -33 -5 0 -10 12 -10 27 0 21 -3 24 -12 15 -18 -18 -26 -15 -30 10 -2
15 -15 25 -44 35 -33 11 -41 19 -41 38 0 20 2 22 22 15 14 -5 38 -5 60 1z
m159 -52 c-3 -5 -10 -7 -15 -3 -5 3 -7 10 -3 15 3 5 10 7 15 3 5 -3 7 -10 3
-15z m187 -46 c-9 -16 -10 -14 -11 12 0 21 3 26 11 18 8 -8 8 -16 0 -30z m39
1 c0 -8 -4 -14 -10 -14 -5 0 -10 9 -10 21 0 11 5 17 10 14 6 -3 10 -13 10 -21z
m3855 16 c-3 -5 -13 -10 -21 -10 -8 0 -12 5 -9 10 3 6 13 10 21 10 8 0 12 -4
9 -10z m-615 -26 c0 -2 -7 -4 -15 -4 -8 0 -15 4 -15 10 0 5 7 7 15 4 8 -4 15
-8 15 -10z m640 -3 c0 -4 15 -13 33 -19 l32 -10 -28 -1 c-15 -1 -42 6 -58 15
-17 8 -37 13 -45 10 -7 -3 -16 -1 -19 4 -4 6 13 10 39 10 25 0 46 -4 46 -9z
m-4107 -14 c3 -7 -3 -13 -13 -13 -10 0 -16 6 -13 13 3 7 9 13 13 13 4 0 10 -6
13 -13z m3998 -40 c-8 -8 -14 -7 -23 2 -11 10 -9 15 7 27 18 13 20 13 23 -2 2
-9 -1 -21 -7 -27z m130 -10 c-13 -13 -26 -3 -16 12 3 6 11 8 17 5 6 -4 6 -10
-1 -17z m-874 7 c-3 -3 -12 -4 -19 -1 -8 3 -5 6 6 6 11 1 17 -2 13 -5z m833
-34 c0 -5 -5 -10 -11 -10 -5 0 -7 5 -4 10 3 6 8 10 11 10 2 0 4 -4 4 -10z
m-4441 -128 c1 -7 -3 -10 -9 -7 -5 3 -10 18 -9 33 0 24 1 25 9 7 5 -11 9 -26
9 -33z m211 13 c0 -8 -4 -15 -10 -15 -5 0 -7 7 -4 15 4 8 8 15 10 15 2 0 4 -7
4 -15z m130 -5 c0 -5 -5 -10 -11 -10 -5 0 -7 5 -4 10 3 6 8 10 11 10 2 0 4 -4
4 -10z m-173 -55 c-23 -22 -33 -18 -12 5 10 11 20 18 23 16 2 -3 -3 -12 -11
-21z m4118 -169 c-2 -105 -13 -106 -14 -1 0 47 3 84 8 81 4 -3 7 -39 6 -80z
m-3975 24 c21 -21 35 -27 25 -10 -3 6 -1 10 5 10 7 0 9 -13 4 -37 -9 -49 -11
-53 -36 -53 -18 0 -20 4 -14 38 4 29 4 32 -4 15 -5 -13 -15 -23 -22 -23 -9 0
-9 -3 0 -12 19 -19 14 -28 -14 -28 -22 0 -25 4 -22 28 2 19 9 28 26 30 33 5
28 30 -5 26 -16 -2 -20 -1 -10 2 9 3 17 12 17 20 0 20 27 17 50 -6z m66 -25
c-1 -19 -5 -33 -11 -32 -5 2 -10 9 -9 15 1 7 2 21 3 32 2 35 18 22 17 -15z
m3189 26 c3 -5 1 -12 -5 -16 -5 -3 -10 1 -10 9 0 18 6 21 15 7z m-3540 -11
c-3 -5 -10 -10 -16 -10 -5 0 -9 5 -9 10 0 6 7 10 16 10 8 0 12 -4 9 -10z
m4292 -12 c-3 -8 -6 -5 -6 6 -1 11 2 17 5 13 3 -3 4 -12 1 -19z m-4397 8 c0
-2 -9 -6 -20 -9 -11 -3 -18 -1 -14 4 5 9 34 13 34 5z m20 -31 c0 -8 -7 -15
-16 -15 -14 0 -14 3 -4 15 7 8 14 15 16 15 2 0 4 -7 4 -15z m3790 -6 c0 -5 -4
-9 -10 -9 -5 0 -10 7 -10 16 0 8 5 12 10 9 6 -3 10 -10 10 -16z m-3870 -19 c0
-5 -2 -10 -4 -10 -3 0 -8 5 -11 10 -3 6 -1 10 4 10 6 0 11 -4 11 -10z m4490
-5 c0 -8 -4 -15 -10 -15 -5 0 -10 7 -10 15 0 8 5 15 10 15 6 0 10 -7 10 -15z
m160 5 c0 -5 -2 -10 -4 -10 -3 0 -8 5 -11 10 -3 6 -1 10 4 10 6 0 11 -4 11
-10z m-132 -69 c15 -30 5 -43 -13 -17 -8 11 -21 16 -30 13 -17 -7 -18 -5 -9
17 9 23 36 16 52 -13z m-4163 -30 c-18 -7 -55 -4 -55 5 0 2 17 4 38 3 28 0 32
-2 17 -8z m4189 -27 c4 -10 1 -14 -6 -12 -15 5 -23 28 -10 28 5 0 13 -7 16
-16z m-729 -134 c3 -5 2 -10 -4 -10 -5 0 -13 5 -16 10 -3 6 -2 10 4 10 5 0 13
-4 16 -10z m535 0 c0 -5 -8 -10 -17 -10 -15 0 -16 2 -3 10 19 12 20 12 20 0z
m-1173 -127 c-3 -10 -5 -4 -5 12 0 17 2 24 5 18 2 -7 2 -21 0 -30z m438 -3 c3
-5 -1 -10 -9 -10 -9 0 -16 5 -16 10 0 6 4 10 9 10 6 0 13 -4 16 -10z m-85 -17
c-8 -4 -21 -12 -28 -20 -8 -7 -18 -10 -24 -7 -12 8 29 34 52 33 13 -1 13 -1 0
-6z m840 -3 c0 -5 -4 -10 -10 -10 -5 0 -10 5 -10 10 0 6 5 10 10 10 6 0 10 -4
10 -10z m-4575 -10 c-3 -5 -12 -10 -18 -10 -7 0 -6 4 3 10 19 12 23 12 15 0z
m3985 -25 c0 -8 -4 -15 -10 -15 -5 0 -10 7 -10 15 0 8 5 15 10 15 6 0 10 -7
10 -15z m655 5 c3 -5 1 -10 -4 -10 -6 0 -11 5 -11 10 0 6 2 10 4 10 3 0 8 -4
11 -10z m-4338 -42 c-3 -8 -6 -5 -6 6 -1 11 2 17 5 13 3 -3 4 -12 1 -19z m38
12 c3 -5 -1 -10 -9 -10 -9 0 -16 5 -16 10 0 6 4 10 9 10 6 0 13 -4 16 -10z
m3087 -12 c-7 -7 -12 -8 -12 -2 0 14 12 26 19 19 2 -3 -1 -11 -7 -17z m508 7
c0 -8 -4 -15 -10 -15 -5 0 -10 7 -10 15 0 8 5 15 10 15 6 0 10 -7 10 -15z
m330 -1 c0 -17 -22 -14 -28 4 -2 7 3 12 12 12 9 0 16 -7 16 -16z m208 -31 c0
-34 -1 -36 -10 -14 -5 14 -6 31 -4 38 9 23 14 14 14 -24z m-423 17 c3 -5 1
-10 -4 -10 -6 0 -11 5 -11 10 0 6 2 10 4 10 3 0 8 -4 11 -10z m615 6 c0 -3 -4
-8 -10 -11 -5 -3 -10 -1 -10 4 0 6 5 11 10 11 6 0 10 -2 10 -4z m-1255 -38
c-7 -23 -7 -23 9 -3 16 19 16 19 10 -10 -4 -16 -12 -33 -18 -37 -7 -5 -5 -8 5
-8 14 0 17 -13 18 -72 1 -99 7 -171 16 -198 6 -18 4 -22 -8 -17 -12 4 -14 2
-10 -11 4 -9 11 -20 17 -24 8 -5 7 -13 -1 -27 -14 -22 -7 -111 8 -111 5 0 9 8
9 17 0 9 3 14 6 10 9 -9 -6 -48 -17 -42 -5 3 -6 -1 -3 -9 4 -10 1 -16 -7 -16
-9 -1 -8 -4 4 -11 9 -5 20 -8 25 -5 4 2 8 -19 9 -47 2 -33 8 -56 18 -63 8 -6
15 -18 15 -26 0 -27 -62 -233 -71 -236 -5 -2 -9 -8 -9 -13 0 -12 -25 -42 -77
-96 -24 -23 -43 -47 -43 -53 0 -5 -6 -10 -14 -10 -8 0 -26 -13 -39 -30 -14
-16 -28 -30 -31 -30 -3 0 -33 -18 -66 -39 -91 -59 -311 -109 -515 -117 -185
-7 -347 26 -576 117 -247 97 -453 304 -487 489 -5 30 -9 160 -8 288 1 128 -1
235 -6 238 -4 3 -8 13 -7 22 0 11 3 12 6 5 2 -7 13 -13 24 -13 12 0 16 -5 13
-15 -4 -8 -1 -15 6 -15 6 0 32 -23 58 -52 26 -29 64 -69 85 -90 42 -43 46 -52
16 -43 -15 5 -19 4 -15 -4 4 -6 15 -11 25 -11 24 0 71 -37 71 -56 0 -7 11 -16
25 -20 14 -3 25 -12 25 -20 0 -8 4 -14 10 -14 5 0 16 -13 24 -29 16 -30 71
-48 80 -27 2 6 10 2 19 -9 8 -11 19 -17 22 -13 4 4 16 3 27 -3 15 -8 17 -13 7
-25 -16 -19 -4 -18 28 4 15 9 24 12 20 5 -5 -7 4 -14 25 -19 32 -7 33 -8 8
-15 -18 -5 -12 -7 25 -6 28 0 77 -5 110 -12 33 -7 65 -13 70 -13 6 0 21 0 35
1 14 0 57 -2 95 -4 39 -2 75 0 80 5 6 4 26 11 45 15 19 4 45 14 57 22 19 13
23 13 23 2 1 -11 4 -10 13 2 18 24 57 31 58 11 0 -14 2 -14 6 -2 10 25 37 40
45 27 5 -8 8 -5 9 8 1 17 2 16 9 -5 7 -23 8 -22 10 10 1 29 3 32 10 15 8 -18
9 -18 9 5 1 20 3 22 11 10 5 -8 10 -10 10 -5 0 6 5 2 11 -7 14 -25 32 -23 24
2 -4 12 -2 20 5 20 6 0 15 10 20 23 5 12 9 16 9 10 2 -27 21 -11 21 17 0 21 8
36 30 52 17 12 30 27 30 34 0 7 10 21 23 31 12 10 33 33 45 51 13 17 30 32 37
32 8 0 18 12 21 26 4 15 14 35 23 44 42 46 61 70 105 133 26 37 51 67 54 67 4
0 13 14 20 30 16 35 37 41 27 8z m-3095 -20 c0 -5 -4 -8 -10 -8 -5 0 -10 10
-10 23 0 18 2 19 10 7 5 -8 10 -18 10 -22z m3976 7 c1 -8 -2 -15 -7 -15 -5 0
-9 10 -9 22 0 23 12 17 16 -7z m-76 11 c0 -3 -4 -8 -10 -11 -5 -3 -10 -1 -10
4 0 6 5 11 10 11 6 0 10 -2 10 -4z m-3940 -42 c0 -8 -4 -12 -10 -9 -5 3 -10
13 -10 21 0 8 5 12 10 9 6 -3 10 -13 10 -21z m3665 -4 c8 0 15 -5 15 -11 0
-13 -39 -2 -57 17 -10 10 -10 13 0 17 6 2 16 -2 20 -9 4 -8 15 -14 22 -14z
m-675 -21 c0 -6 -4 -7 -10 -4 -5 3 -10 11 -10 16 0 6 5 7 10 4 6 -3 10 -11 10
-16z m-2825 -17 c-11 -2 -25 -9 -32 -14 -7 -5 -17 -7 -23 -3 -19 12 -10 24 23
27 36 4 63 -5 32 -10z m3225 -2 c0 -5 -5 -10 -11 -10 -5 0 -7 5 -4 10 3 6 8
10 11 10 2 0 4 -4 4 -10z m288 -1 c-2 -6 -7 -10 -11 -10 -4 1 -14 1 -22 1 -8
0 -15 5 -15 10 0 6 12 10 26 10 14 0 24 -5 22 -11z m644 -4 c0 -5 -5 -11 -11
-13 -6 -2 -11 4 -11 13 0 9 5 15 11 13 6 -2 11 -8 11 -13z m-1425 -17 c-3 -8
-6 -5 -6 6 -1 11 2 17 5 13 3 -3 4 -12 1 -19z m708 -8 c3 -5 20 -7 38 -4 27 4
29 3 14 -6 -21 -13 -100 -4 -91 11 7 12 31 12 39 -1z m95 -39 c0 -6 -4 -13
-10 -16 -5 -3 -10 1 -10 9 0 9 5 16 10 16 6 0 10 -4 10 -9z m-3830 -29 c0 -5
-13 -7 -30 -4 -16 2 -30 6 -30 8 0 2 14 4 30 4 17 0 30 -4 30 -8z m3860 -12
c0 -5 -2 -10 -4 -10 -3 0 -8 5 -11 10 -3 6 -1 10 4 10 6 0 11 -4 11 -10z m40
0 c0 -5 -4 -10 -10 -10 -5 0 -10 5 -10 10 0 6 5 10 10 10 6 0 10 -4 10 -10z
m-4220 -4 c0 -2 -7 -6 -15 -10 -8 -3 -15 -1 -15 4 0 6 7 10 15 10 8 0 15 -2
15 -4z m325 -16 c-3 -5 -12 -10 -18 -10 -7 0 -6 4 3 10 19 12 23 12 15 0z
m3725 6 c0 -2 -13 -6 -29 -8 -17 -2 -28 -1 -25 4 5 8 54 12 54 4z m37 -21 c-7
-17 -37 -21 -37 -5 0 6 7 10 15 10 8 0 15 5 15 12 0 6 3 9 6 5 4 -3 4 -13 1
-22z m-3720 9 c-3 -3 -12 -4 -19 -1 -8 3 -5 6 6 6 11 1 17 -2 13 -5z m3807
-45 c-3 -6 -11 -6 -19 1 -11 9 -12 16 -2 31 11 18 12 18 19 -2 5 -11 5 -25 2
-30z m-199 31 c3 -5 1 -10 -4 -10 -6 0 -11 5 -11 10 0 6 2 10 4 10 3 0 8 -4
11 -10z m-3525 -10 c0 -5 -4 -10 -10 -10 -5 0 -10 5 -10 10 0 6 5 10 10 10 6
0 10 -4 10 -10z m3680 0 c0 -5 -4 -10 -10 -10 -5 0 -10 5 -10 10 0 6 5 10 10
10 6 0 10 -4 10 -10z m890 0 c0 -5 -2 -10 -4 -10 -3 0 -8 5 -11 10 -3 6 -1 10
4 10 6 0 11 -4 11 -10z m-1013 -22 c-3 -8 -6 -5 -6 6 -1 11 2 17 5 13 3 -3 4
-12 1 -19z m-3567 -8 c0 -5 -4 -10 -10 -10 -5 0 -10 5 -10 10 0 6 5 10 10 10
6 0 10 -4 10 -10z m-320 -10 c0 -5 -2 -10 -4 -10 -3 0 -8 5 -11 10 -3 6 -1 10
4 10 6 0 11 -4 11 -10z m3940 -10 c0 -5 -4 -10 -9 -10 -6 0 -13 5 -16 10 -3 6
1 10 9 10 9 0 16 -4 16 -10z m60 -2 c0 -4 -9 -8 -20 -8 -11 0 -20 4 -20 8 0 4
9 8 20 8 11 0 20 -4 20 -8z m-1015 -58 c3 -5 2 -10 -4 -10 -5 0 -13 5 -16 10
-3 6 -2 10 4 10 5 0 13 -4 16 -10z m1449 -19 c4 -5 -3 -7 -14 -4 -23 6 -26 13
-6 13 8 0 17 -4 20 -9z m-21 -42 c-4 -15 -9 -17 -17 -9 -8 8 -7 13 4 20 8 5
16 10 17 10 0 0 -1 -9 -4 -21z m-893 -40 c0 -6 -4 -7 -10 -4 -5 3 -10 11 -10
16 0 6 5 7 10 4 6 -3 10 -11 10 -16z"/>
<path d="M4488 4421 c-11 -4 -14 -11 -9 -19 6 -10 10 -10 21 3 15 19 11 25
-12 16z"/>
<path d="M4417 4373 c-4 -3 -7 -11 -7 -17 0 -6 5 -5 12 2 6 6 9 14 7 17 -3 3
-9 2 -12 -2z"/>
<path d="M4450 4309 c0 -15 -5 -19 -15 -15 -9 3 -15 0 -15 -9 0 -8 5 -15 11
-15 6 0 9 -7 5 -15 -7 -19 1 -19 19 -1 14 14 18 29 16 59 -2 25 -21 21 -21 -4z"/>
<path d="M4517 4310 c3 -11 9 -20 13 -20 5 0 6 9 3 20 -3 11 -9 20 -13 20 -5
0 -6 -9 -3 -20z"/>
<path d="M4426 4222 c-3 -6 -1 -14 5 -17 15 -10 25 3 12 16 -7 7 -13 7 -17 1z"/>
<path d="M4137 4313 c-12 -12 -7 -22 8 -17 8 4 15 10 15 15 0 11 -14 12 -23 2z"/>
<path d="M4355 3690 c3 -5 8 -10 11 -10 2 0 4 5 4 10 0 6 -5 10 -11 10 -5 0
-7 -4 -4 -10z"/>
<path d="M4390 3456 c0 -31 6 -34 13 -6 3 11 1 23 -4 26 -5 3 -9 -6 -9 -20z"/>
<path d="M4350 3369 c0 -5 5 -7 10 -4 6 3 10 8 10 11 0 2 -4 4 -10 4 -5 0 -10
-5 -10 -11z"/>
<path d="M4280 3336 c0 -9 5 -16 10 -16 6 0 10 4 10 9 0 6 -4 13 -10 16 -5 3
-10 -1 -10 -9z"/>
<path d="M4514 3176 c-8 -22 3 -33 18 -18 9 9 9 15 0 24 -9 9 -13 7 -18 -6z"/>
<path d="M4500 3136 c0 -2 9 -6 20 -9 11 -3 20 -1 20 4 0 5 -9 9 -20 9 -11 0
-20 -2 -20 -4z"/>
<path d="M4620 3056 c0 -2 7 -7 16 -10 8 -3 12 -2 9 4 -6 10 -25 14 -25 6z"/>
<path d="M4426 2924 c-10 -27 -7 -44 9 -44 10 0 15 10 15 30 0 32 -14 40 -24
14z"/>
<path d="M4136 2874 c-9 -24 -7 -34 8 -34 9 0 13 10 12 25 -1 28 -11 33 -20 9z"/>
<path d="M4335 2869 c-10 -15 3 -25 16 -12 7 7 7 13 1 17 -6 3 -14 1 -17 -5z"/>
<path d="M4684 2836 c-3 -8 -14 -12 -27 -9 -18 5 -20 3 -10 -7 10 -11 18 -11
38 -2 14 6 25 16 25 22 0 15 -20 12 -26 -4z"/>
<path d="M4722 2805 c-10 -22 -9 -30 4 -48 10 -13 14 -15 11 -6 -6 20 20 62
34 54 5 -4 9 -1 9 4 0 6 -4 11 -9 11 -5 0 -16 2 -23 5 -9 4 -19 -4 -26 -20z"/>
<path d="M4632 2793 c2 -10 8 -18 13 -18 6 0 16 -4 23 -9 24 -15 25 3 1 23
-30 25 -41 26 -37 4z"/>
<path d="M4606 2708 c-32 -32 -38 -43 -29 -56 13 -21 43 -28 43 -10 0 8 13 24
30 36 30 22 32 52 3 52 -8 0 -11 5 -8 10 11 17 1 10 -39 -32z"/>
<path d="M4397 2693 c-4 -3 -7 -13 -7 -22 1 -13 3 -13 11 2 11 19 8 33 -4 20z"/>
<path d="M4503 2573 c9 -2 25 -2 35 0 9 3 1 5 -18 5 -19 0 -27 -2 -17 -5z"/>
<path d="M4630 2484 c0 -8 5 -12 10 -9 6 3 10 10 10 16 0 5 -4 9 -10 9 -5 0
-10 -7 -10 -16z"/>
<path d="M3940 2475 c0 -8 5 -15 10 -15 6 0 10 7 10 15 0 8 -4 15 -10 15 -5 0
-10 -7 -10 -15z"/>
<path d="M4551 2404 c0 -11 3 -14 6 -6 3 7 2 16 -1 19 -3 4 -6 -2 -5 -13z"/>
<path d="M4496 2301 c-4 -7 -5 -15 -2 -18 9 -9 19 4 14 18 -4 11 -6 11 -12 0z"/>
<path d="M4505 2239 c-10 -15 3 -25 16 -12 7 7 7 13 1 17 -6 3 -14 1 -17 -5z"/>
<path d="M4530 2110 c0 -5 5 -10 11 -10 5 0 7 5 4 10 -3 6 -8 10 -11 10 -2 0
-4 -4 -4 -10z"/>
<path d="M4530 1970 c0 -5 5 -10 10 -10 6 0 10 5 10 10 0 6 -4 10 -10 10 -5 0
-10 -4 -10 -10z"/>
<path d="M4254 1959 c-8 -14 18 -31 30 -19 9 9 0 30 -14 30 -5 0 -12 -5 -16
-11z"/>
<path d="M4396 1932 c-8 -13 5 -52 16 -46 5 3 4 12 -3 20 -8 10 -8 14 0 14 6
0 11 5 11 10 0 12 -17 13 -24 2z"/>
<path d="M4255 1861 c-3 -5 -1 -12 4 -15 5 -3 11 1 15 9 6 16 -9 21 -19 6z"/>
<path d="M4294 1835 c-7 -17 4 -37 17 -30 12 8 12 45 -1 45 -6 0 -13 -7 -16
-15z"/>
<path d="M4658 1794 c13 -9 30 -13 38 -10 24 9 6 26 -29 26 l-31 0 22 -16z"/>
<path d="M4672 1763 c-10 -4 -10 -8 -1 -19 16 -20 29 -17 29 6 0 20 -5 23 -28
13z"/>
<path d="M4404 1715 c-3 -8 -4 -20 -2 -27 3 -7 7 -1 10 15 6 29 1 36 -8 12z"/>
<path d="M4480 1710 c0 -24 15 -27 24 -4 9 22 8 24 -9 24 -8 0 -15 -9 -15 -20z"/>
<path d="M4430 1700 c0 -5 5 -10 10 -10 6 0 10 5 10 10 0 6 -4 10 -10 10 -5 0
-10 -4 -10 -10z"/>
<path d="M4640 1700 c0 -13 18 -22 24 -11 3 5 -1 11 -9 15 -8 3 -15 1 -15 -4z"/>
<path d="M4350 1670 c0 -5 4 -10 9 -10 6 0 13 5 16 10 3 6 -1 10 -9 10 -9 0
-16 -4 -16 -10z"/>
<path d="M4520 1655 c12 -15 30 -12 30 6 0 5 -10 9 -21 9 -18 0 -19 -2 -9 -15z"/>
<path d="M4635 1650 c-4 -6 -2 -17 4 -24 7 -9 7 -16 -1 -24 -15 -15 3 -35 24
-27 10 4 16 20 16 46 1 32 -3 39 -18 39 -10 0 -22 -5 -25 -10z"/>
<path d="M4485 1600 c-3 -5 -1 -10 4 -10 6 0 11 5 11 10 0 6 -2 10 -4 10 -3 0
-8 -4 -11 -10z"/>
<path d="M4463 1564 c-15 -16 -16 -24 -4 -24 8 0 24 30 19 35 -2 2 -9 -3 -15
-11z"/>
<path d="M4526 1552 c-3 -5 1 -15 9 -22 9 -7 13 -21 9 -35 -5 -19 -1 -23 23
-28 35 -7 41 -1 25 23 -7 12 -8 21 -2 25 18 11 10 23 -11 18 -14 -4 -26 0 -35
11 -6 9 -15 13 -18 8z"/>
<path d="M4624 1539 c-2 -4 14 -8 36 -7 22 0 37 4 35 9 -7 10 -64 9 -71 -2z"/>
<path d="M4630 1501 c0 -5 5 -13 10 -16 6 -3 10 -2 10 4 0 5 -4 13 -10 16 -5
3 -10 2 -10 -4z"/>
<path d="M4655 1460 c-3 -5 -1 -10 4 -10 6 0 11 5 11 10 0 6 -2 10 -4 10 -3 0
-8 -4 -11 -10z"/>
<path d="M1000 2321 c0 -5 5 -13 10 -16 6 -3 10 -2 10 4 0 5 -4 13 -10 16 -5
3 -10 2 -10 -4z"/>
<path d="M910 1896 c0 -14 5 -26 10 -26 6 0 10 9 10 19 0 11 -4 23 -10 26 -6
4 -10 -5 -10 -19z"/>
<path d="M3270 874 c0 -8 5 -12 10 -9 6 3 10 10 10 16 0 5 -4 9 -10 9 -5 0
-10 -7 -10 -16z"/>
<path d="M3705 761 c-4 -7 -3 -16 3 -20 6 -3 12 -22 15 -41 l4 -35 1 35 c1 45
-11 79 -23 61z"/>
<path d="M2270 740 c0 -5 5 -10 11 -10 5 0 7 5 4 10 -3 6 -8 10 -11 10 -2 0
-4 -4 -4 -10z"/>
<path d="M3790 5204 c0 -9 5 -14 12 -12 18 6 21 28 4 28 -9 0 -16 -7 -16 -16z"/>
<path d="M3860 5210 c0 -5 9 -10 20 -10 11 0 20 5 20 10 0 6 -9 10 -20 10 -11
0 -20 -4 -20 -10z"/>
<path d="M4605 5210 c3 -5 10 -10 16 -10 5 0 9 5 9 10 0 6 -7 10 -16 10 -8 0
-12 -4 -9 -10z"/>
<path d="M4740 5207 c-14 -6 -29 -17 -33 -24 -14 -23 -28 -14 -16 10 11 20 11
21 -5 8 -9 -8 -14 -21 -11 -29 3 -9 0 -19 -7 -24 -18 -11 -40 -10 -33 2 3 6 1
10 -5 10 -7 0 -9 -7 -6 -16 3 -9 6 -19 6 -24 0 -13 53 -5 58 9 5 16 22 14 22
-4 0 -8 -10 -19 -21 -26 -16 -8 -18 -13 -9 -19 9 -5 9 -13 2 -26 -5 -11 -8
-48 -5 -84 6 -75 13 -92 13 -32 0 23 5 42 10 42 6 0 10 -10 10 -22 0 -41 12
-9 15 41 2 27 9 60 15 71 8 16 8 25 0 35 -7 9 -8 15 0 20 14 9 30 -3 30 -23 1
-14 4 -13 19 6 11 12 24 22 31 22 6 0 10 6 7 13 -2 6 -12 11 -21 11 -9 -1 -16
2 -16 7 0 16 27 21 50 9 24 -13 63 -4 57 13 -3 7 -10 11 -17 9 -8 -2 -10 3 -7
13 5 12 -3 15 -51 14 -31 0 -68 -6 -82 -12z m-34 -214 c-11 -11 -19 6 -11 24
8 17 8 17 12 0 3 -10 2 -21 -1 -24z"/>
<path d="M4938 5213 c28 -4 31 -7 22 -24 -6 -10 -9 -19 -8 -20 28 -8 58 -7 58
1 0 7 8 9 19 5 10 -3 29 -1 42 4 17 7 19 10 7 10 -10 1 -18 7 -18 15 0 10 -18
13 -77 13 -43 0 -63 -2 -45 -4z"/>
<path d="M2396 5201 c-4 -7 -5 -15 -2 -18 9 -9 19 4 14 18 -4 11 -6 11 -12 0z"/>
<path d="M4641 5194 c0 -11 3 -14 6 -6 3 7 2 16 -1 19 -3 4 -6 -2 -5 -13z"/>
<path d="M2345 5170 c-3 -5 -1 -10 4 -10 6 0 11 5 11 10 0 6 -2 10 -4 10 -3 0
-8 -4 -11 -10z"/>
<path d="M4300 5169 c0 -5 5 -7 10 -4 6 3 10 8 10 11 0 2 -4 4 -10 4 -5 0 -10
-5 -10 -11z"/>
<path d="M0 5160 c0 -5 5 -10 11 -10 5 0 7 5 4 10 -3 6 -8 10 -11 10 -2 0 -4
-4 -4 -10z"/>
<path d="M1665 5160 c-18 -8 -17 -9 8 -9 15 -1 27 4 27 9 0 12 -8 12 -35 0z"/>
<path d="M5190 5130 c-6 -11 -18 -20 -28 -20 -28 -1 -52 -25 -56 -58 -4 -34 7
-42 44 -31 16 4 19 7 8 8 -30 2 -18 21 35 55 17 12 27 27 27 42 0 29 -15 31
-30 4z"/>
<path d="M1640 5121 c0 -5 -8 -12 -17 -14 -11 -3 -7 -5 10 -6 18 -1 27 4 27
14 0 8 -4 15 -10 15 -5 0 -10 -4 -10 -9z"/>
<path d="M1485 5110 c-3 -5 -1 -10 4 -10 6 0 11 5 11 10 0 6 -2 10 -4 10 -3 0
-8 -4 -11 -10z"/>
<path d="M880 5085 c0 -10 7 -15 18 -13 21 4 19 22 -2 26 -10 2 -16 -3 -16
-13z"/>
<path d="M830 5080 c-20 -12 -9 -20 31 -24 19 -2 26 -2 17 1 -10 2 -15 10 -11
19 6 16 -14 19 -37 4z"/>
<path d="M4932 5055 c-31 -14 -22 -31 16 -27 22 2 34 -2 43 -15 16 -26 69 -19
69 8 0 17 -3 18 -20 9 -15 -8 -26 -7 -45 6 -14 9 -23 19 -20 23 6 11 -16 9
-43 -4z"/>
<path d="M210 5050 c0 -5 5 -10 10 -10 6 0 10 5 10 10 0 6 -4 10 -10 10 -5 0
-10 -4 -10 -10z"/>
<path d="M258 5046 c-18 -13 -25 -36 -10 -36 17 1 34 18 30 33 -2 13 -6 14
-20 3z"/>
<path d="M1325 5032 c-3 -3 -24 -9 -48 -13 -35 -6 -39 -8 -19 -14 12 -4 22
-12 22 -17 0 -5 7 -2 16 7 11 11 25 14 45 10 22 -5 29 -3 29 8 0 15 -34 30
-45 19z"/>
<path d="M440 4990 c0 -16 -4 -30 -10 -30 -5 0 -10 6 -10 13 0 8 -4 7 -10 -3
-6 -10 -10 -11 -10 -2 0 6 -11 12 -25 12 -14 0 -25 -4 -25 -8 0 -12 56 -42 79
-42 18 0 21 6 21 45 0 25 -2 45 -5 45 -3 0 -5 -13 -5 -30z"/>
<path d="M4741 5004 c0 -11 3 -14 6 -6 3 7 2 16 -1 19 -3 4 -6 -2 -5 -13z"/>
<path d="M4895 4989 c-4 -6 -16 -9 -26 -6 -24 6 -24 2 -1 -20 20 -21 73 -24
79 -5 3 6 0 12 -5 12 -6 0 -17 7 -26 15 -10 10 -17 12 -21 4z"/>
<path d="M1685 4950 c-3 -5 -1 -10 4 -10 6 0 11 5 11 10 0 6 -2 10 -4 10 -3 0
-8 -4 -11 -10z"/>
<path d="M5111 4951 c-8 -6 -9 -11 -3 -15 6 -3 14 -1 17 5 9 14 2 20 -14 10z"/>
<path d="M5170 4930 c0 -5 11 -10 25 -10 14 0 25 5 25 10 0 6 -11 10 -25 10
-14 0 -25 -4 -25 -10z"/>
<path d="M1415 4881 c-3 -5 -1 -12 5 -16 5 -3 10 1 10 9 0 18 -6 21 -15 7z"/>
<path d="M1455 4879 c-10 -15 1 -23 20 -15 9 3 13 10 10 16 -8 13 -22 13 -30
-1z"/>
<path d="M1570 4845 c0 -14 5 -25 10 -25 6 0 10 11 10 25 0 14 -4 25 -10 25
-5 0 -10 -11 -10 -25z"/>
<path d="M1435 4839 c-4 -6 -5 -12 -2 -15 2 -3 7 2 10 11 7 17 1 20 -8 4z"/>
<path d="M1485 4820 c3 -5 13 -10 21 -10 8 0 12 5 9 10 -3 6 -13 10 -21 10 -8
0 -12 -4 -9 -10z"/>
<path d="M180 4762 c0 -4 5 -13 11 -19 7 -7 7 -13 1 -17 -6 -3 -18 1 -27 10
-20 20 -33 10 -15 -11 17 -20 64 -16 68 7 2 9 -6 22 -17 28 -12 6 -21 7 -21 2z"/>
<path d="M4638 4743 c6 -2 18 -2 25 0 6 3 1 5 -13 5 -14 0 -19 -2 -12 -5z"/>
<path d="M4624 4719 c-3 -6 -1 -16 5 -22 8 -8 11 -5 11 11 0 24 -5 28 -16 11z"/>
<path d="M2785 4640 c3 -5 8 -10 11 -10 2 0 4 5 4 10 0 6 -5 10 -11 10 -5 0
-7 -4 -4 -10z"/>
<path d="M670 4631 c0 -6 5 -13 10 -16 6 -3 10 1 10 9 0 9 -4 16 -10 16 -5 0
-10 -4 -10 -9z"/>
<path d="M990 4625 c0 -8 2 -15 4 -15 2 0 6 7 10 15 3 8 1 15 -4 15 -6 0 -10
-7 -10 -15z"/>
<path d="M1270 4573 c0 -12 5 -25 11 -28 16 -11 17 -2 2 25 -12 24 -13 24 -13
3z"/>
<path d="M690 4556 c0 -9 5 -16 10 -16 6 0 10 4 10 9 0 6 -4 13 -10 16 -5 3
-10 -1 -10 -9z"/>
<path d="M481 4514 c0 -11 3 -14 6 -6 3 7 2 16 -1 19 -3 4 -6 -2 -5 -13z"/>
<path d="M910 4489 c0 -6 -6 -9 -14 -6 -8 3 -16 -2 -19 -13 -6 -23 3 -70 14
-70 13 0 20 18 9 25 -5 3 -10 13 -10 21 0 10 7 13 24 8 21 -5 24 -2 22 20 -1
25 -26 39 -26 15z"/>
<path d="M5193 4379 c1 -49 -8 -70 -26 -68 -23 2 -57 -14 -57 -27 0 -8 -8 -14
-17 -15 -11 0 -13 -3 -5 -6 6 -2 12 -11 12 -18 0 -10 7 -12 29 -5 27 8 29 6
28 -17 -3 -43 21 -38 34 6 7 23 16 41 21 41 4 0 8 25 8 55 0 30 -4 55 -9 55
-5 0 -12 10 -14 23 -3 12 -5 1 -4 -24z"/>
<path d="M683 4403 c-7 -2 -13 -10 -13 -16 1 -17 39 -61 47 -54 3 4 1 12 -5
20 -6 7 -9 23 -5 35 5 22 0 25 -24 15z"/>
<path d="M5066 4325 c4 -9 0 -15 -10 -15 -9 0 -16 -5 -16 -11 0 -9 47 -5 58 5
7 8 -12 36 -24 36 -8 0 -11 -6 -8 -15z"/>
<path d="M3290 4310 c0 -11 5 -20 10 -20 6 0 10 9 10 20 0 11 -4 20 -10 20 -5
0 -10 -9 -10 -20z"/>
<path d="M925 4260 c-3 -6 1 -7 9 -4 18 7 21 14 7 14 -6 0 -13 -4 -16 -10z"/>
<path d="M4982 4258 c5 -15 28 -18 29 -3 0 6 -7 12 -17 13 -10 3 -15 -1 -12
-10z"/>
<path d="M146 4223 c-4 -9 -3 -20 2 -25 6 -6 11 1 14 16 6 29 -6 35 -16 9z"/>
<path d="M898 4167 c-19 -15 -7 -47 17 -47 9 0 12 -6 8 -17 -5 -14 -3 -15 6
-7 10 9 9 18 -3 42 -8 16 -12 32 -9 36 11 10 -1 6 -19 -7z"/>
<path d="M5190 4170 c-11 -7 -12 -12 -3 -21 6 -6 9 -19 5 -28 -5 -14 -4 -14
11 1 17 17 24 58 10 58 -5 0 -15 -5 -23 -10z"/>
<path d="M790 4121 c0 -12 29 -23 41 -15 5 3 7 10 4 15 -8 12 -45 12 -45 0z"/>
<path d="M642 4070 c0 -14 2 -19 5 -12 2 6 2 18 0 25 -3 6 -5 1 -5 -13z"/>
<path d="M5180 4064 c6 -14 10 -36 10 -49 0 -18 4 -23 15 -19 21 8 19 64 -2
80 -27 20 -34 17 -23 -12z"/>
<path d="M846 4071 c-3 -5 1 -14 9 -21 12 -10 15 -10 15 3 0 19 -16 31 -24 18z"/>
<path d="M632 4020 c0 -14 2 -19 5 -12 2 6 2 18 0 25 -3 6 -5 1 -5 -13z"/>
<path d="M316 4022 c-3 -5 1 -9 9 -9 8 0 12 4 9 9 -3 4 -7 8 -9 8 -2 0 -6 -4
-9 -8z"/>
<path d="M5110 4002 c0 -20 20 -54 20 -34 0 6 9 12 21 12 29 0 19 22 -14 31
-21 6 -27 4 -27 -9z"/>
<path d="M335 3980 c3 -5 8 -10 11 -10 2 0 4 5 4 10 0 6 -5 10 -11 10 -5 0 -7
-4 -4 -10z"/>
<path d="M350 3952 c0 -12 19 -26 26 -19 2 2 -2 10 -11 17 -9 8 -15 8 -15 2z"/>
<path d="M655 3940 c-3 -5 -1 -10 6 -10 6 0 9 -8 6 -20 -3 -10 1 -27 8 -37 13
-17 14 -16 24 10 15 39 14 45 -8 57 -24 12 -28 13 -36 0z"/>
<path d="M1193 3935 c0 -8 4 -12 9 -9 5 3 6 10 3 15 -9 13 -12 11 -12 -6z"/>
<path d="M5145 3940 c-3 -5 1 -10 9 -10 9 0 16 5 16 10 0 6 -4 10 -9 10 -6 0
-13 -4 -16 -10z"/>
<path d="M740 3900 c0 -5 5 -10 10 -10 6 0 10 5 10 10 0 6 -4 10 -10 10 -5 0
-10 -4 -10 -10z"/>
<path d="M1183 3893 c-13 -9 -23 -26 -23 -39 0 -13 -4 -24 -9 -24 -15 0 -23
-51 -11 -66 7 -7 9 -18 5 -24 -3 -5 1 -10 9 -10 15 0 19 -36 5 -55 -12 -17 7
-39 26 -31 14 5 16 2 10 -16 -4 -13 -9 -35 -12 -51 -3 -15 -9 -30 -14 -33 -13
-8 -11 -24 4 -24 23 1 48 49 48 92 -1 24 2 61 5 83 3 22 1 60 -5 84 -5 25 -6
52 -1 60 9 17 2 71 -9 70 -3 0 -16 -7 -28 -16z"/>
<path d="M760 3838 c0 -15 -4 -30 -10 -33 -5 -3 -10 -14 -10 -23 0 -14 2 -13
13 3 21 31 26 51 16 66 -6 10 -9 7 -9 -13z"/>
<path d="M1041 3834 c0 -11 3 -14 6 -6 3 7 2 16 -1 19 -3 4 -6 -2 -5 -13z"/>
<path d="M976 3821 c-4 -7 -5 -15 -2 -18 9 -9 19 4 14 18 -4 11 -6 11 -12 0z"/>
<path d="M440 3786 c0 -9 7 -16 16 -16 17 0 14 22 -4 28 -7 2 -12 -3 -12 -12z"/>
<path d="M954 3782 c-9 -5 -9 -10 0 -18 9 -8 17 -8 29 1 26 19 -2 35 -29 17z"/>
<path d="M500 3748 c0 -11 29 -37 43 -38 18 0 5 28 -18 38 -18 9 -25 9 -25 0z"/>
<path d="M687 3753 c-4 -3 -7 -11 -7 -17 0 -6 5 -5 12 2 6 6 9 14 7 17 -3 3
-9 2 -12 -2z"/>
<path d="M760 3744 c0 -8 5 -12 10 -9 6 3 10 10 10 16 0 5 -4 9 -10 9 -5 0
-10 -7 -10 -16z"/>
<path d="M791 3734 c0 -11 3 -14 6 -6 3 7 2 16 -1 19 -3 4 -6 -2 -5 -13z"/>
<path d="M715 3706 c-11 -9 -14 -16 -7 -16 6 0 12 -7 12 -15 0 -9 -6 -12 -17
-8 -14 5 -15 1 -10 -25 4 -18 2 -34 -4 -38 -8 -4 -7 -9 2 -15 12 -8 12 -10 1
-18 -11 -7 -11 -9 2 -14 10 -4 16 -18 16 -35 0 -27 28 -67 32 -46 0 5 2 14 3
19 2 6 3 18 4 28 0 10 7 17 14 16 26 -3 36 2 31 16 -4 9 -19 15 -36 15 -32 0
-63 24 -53 40 3 5 14 10 25 10 21 0 34 27 21 44 -5 6 -11 21 -13 34 -3 21 -4
22 -23 8z"/>
<path d="M5015 3710 c3 -5 10 -10 16 -10 5 0 9 5 9 10 0 6 -7 10 -16 10 -8 0
-12 -4 -9 -10z"/>
<path d="M4742 3670 c0 -14 2 -19 5 -12 2 6 2 18 0 25 -3 6 -5 1 -5 -13z"/>
<path d="M1068 3673 c-11 -3 -18 -14 -18 -30 0 -19 4 -24 16 -19 9 3 20 6 25
6 5 0 9 11 9 25 0 25 -1 26 -32 18z"/>
<path d="M5190 3670 c0 -6 7 -10 15 -10 8 0 15 2 15 4 0 2 -7 6 -15 10 -8 3
-15 1 -15 -4z"/>
<path d="M260 3649 c0 -5 5 -7 10 -4 6 3 10 8 10 11 0 2 -4 4 -10 4 -5 0 -10
-5 -10 -11z"/>
<path d="M420 3629 c0 -18 2 -19 15 -9 15 12 12 30 -6 30 -5 0 -9 -10 -9 -21z"/>
<path d="M1010 3616 c0 -2 7 -9 15 -16 9 -7 15 -8 15 -2 0 5 -7 12 -15 16 -8
3 -15 4 -15 2z"/>
<path d="M1138 3588 c5 -33 7 -33 15 3 5 17 2 26 -6 26 -9 0 -12 -10 -9 -29z"/>
<path d="M5060 3600 c0 -11 4 -20 9 -20 5 0 11 9 14 20 3 13 0 20 -9 20 -8 0
-14 -9 -14 -20z"/>
<path d="M728 3603 c7 -3 16 -2 19 1 4 3 -2 6 -13 5 -11 0 -14 -3 -6 -6z"/>
<path d="M1080 3585 c0 -11 -5 -15 -15 -11 -9 3 -15 0 -15 -9 0 -8 -7 -15 -16
-15 -13 0 -14 -3 -5 -14 9 -11 7 -15 -11 -21 -19 -6 -20 -8 -6 -12 11 -3 30 9
53 34 37 41 41 48 25 58 -5 3 -10 -1 -10 -10z"/>
<path d="M5180 3590 c0 -5 5 -10 11 -10 5 0 7 5 4 10 -3 6 -8 10 -11 10 -2 0
-4 -4 -4 -10z"/>
<path d="M900 3536 c-6 -20 -16 -36 -21 -36 -5 0 -9 -7 -9 -15 0 -8 -7 -15
-15 -15 -8 0 -15 -4 -15 -10 0 -5 4 -10 9 -10 5 0 11 -12 14 -27 3 -16 9 -40
12 -54 6 -21 3 -27 -14 -32 -12 -3 -21 -13 -21 -24 0 -10 -7 -29 -16 -41 -14
-21 -14 -23 8 -31 18 -7 27 -5 40 12 10 12 18 33 18 47 0 14 7 36 16 48 20 29
26 89 9 96 -10 3 -10 15 1 57 16 61 3 91 -16 35z"/>
<path d="M4765 3560 c3 -5 13 -10 21 -10 8 0 12 5 9 10 -3 6 -13 10 -21 10 -8
0 -12 -4 -9 -10z"/>
<path d="M3450 3520 c0 -5 5 -10 10 -10 6 0 10 5 10 10 0 6 -4 10 -10 10 -5 0
-10 -4 -10 -10z"/>
<path d="M1165 3500 c3 -5 8 -10 11 -10 2 0 4 5 4 10 0 6 -5 10 -11 10 -5 0
-7 -4 -4 -10z"/>
<path d="M1151 3474 c0 -11 3 -14 6 -6 3 7 2 16 -1 19 -3 4 -6 -2 -5 -13z"/>
<path d="M3110 3480 c-11 -7 -8 -10 17 -10 27 0 32 -4 35 -27 3 -28 4 -28 63
-25 56 3 59 2 40 -12 -18 -13 -18 -15 -3 -16 11 0 15 -5 12 -14 -5 -12 3 -14
36 -11 22 3 45 7 50 10 5 3 11 1 15 -5 3 -5 0 -10 -7 -10 -8 0 -23 -7 -34 -15
-19 -15 -19 -16 1 -14 30 2 85 -12 85 -22 0 -5 15 -9 33 -9 20 0 42 -8 55 -20
19 -18 22 -18 22 -4 0 9 -9 18 -20 21 -11 3 -20 9 -20 14 0 5 -15 23 -34 39
-22 20 -32 37 -29 48 3 14 -6 20 -49 31 -29 7 -80 15 -113 18 -32 3 -64 11
-70 18 -14 18 -67 27 -85 15z"/>
<path d="M550 3465 c0 -8 7 -15 15 -15 8 0 15 4 15 9 0 5 -7 11 -15 15 -9 3
-15 0 -15 -9z"/>
<path d="M1181 3458 c-1 -9 -6 -18 -12 -20 -7 -2 -10 -11 -7 -18 3 -11 8 -9
17 8 7 13 10 28 7 35 -2 7 -5 5 -5 -5z"/>
<path d="M2896 3439 c2 -5 -12 -11 -33 -15 -21 -3 -47 -14 -57 -23 -16 -13
-18 -13 -14 -1 4 11 -2 15 -23 16 l-29 1 22 -19 22 -18 -25 2 c-18 2 -24 -1
-22 -16 1 -11 -6 -25 -14 -31 -14 -11 -14 -12 0 -18 9 -3 30 -2 46 3 29 8 55
-4 29 -13 -28 -9 22 2 107 24 50 13 92 27 93 32 2 4 12 7 23 7 10 0 19 4 19 9
0 5 18 16 40 25 52 21 51 30 -4 24 -25 -3 -48 -2 -53 2 -11 10 -133 18 -127 9z"/>
<path d="M1143 3340 c0 -25 2 -35 4 -22 2 12 2 32 0 45 -2 12 -4 2 -4 -23z"/>
<path d="M660 3330 c0 -11 5 -20 10 -20 6 0 10 9 10 20 0 11 -4 20 -10 20 -5
0 -10 -9 -10 -20z"/>
<path d="M600 3296 c0 -2 9 -6 20 -9 11 -3 20 -1 20 4 0 5 -9 9 -20 9 -11 0
-20 -2 -20 -4z"/>
<path d="M3448 3263 c6 -2 18 -2 25 0 6 3 1 5 -13 5 -14 0 -19 -2 -12 -5z"/>
<path d="M725 3250 c3 -5 11 -10 16 -10 6 0 7 5 4 10 -3 6 -11 10 -16 10 -6 0
-7 -4 -4 -10z"/>
<path d="M1693 3253 c-24 -5 -32 -22 -10 -24 6 0 -3 -5 -22 -11 -41 -11 -103
-57 -95 -69 3 -5 0 -9 -7 -9 -10 0 -10 -3 -1 -12 18 -18 113 -10 193 17 40 14
82 25 93 25 19 1 19 2 -4 15 -14 7 -23 17 -22 21 2 4 -2 11 -10 15 -10 7 -8 9
7 10 11 0 3 5 -18 10 -24 6 -45 5 -57 -1 -29 -16 -45 -13 -30 5 7 8 11 14 9
14 -2 -1 -14 -4 -26 -6z"/>
<path d="M590 3240 c0 -5 5 -10 10 -10 6 0 10 5 10 10 0 6 -4 10 -10 10 -5 0
-10 -4 -10 -10z"/>
<path d="M1014 3225 c-3 -8 -3 -19 1 -25 11 -18 25 -11 25 15 0 27 -17 34 -26
10z"/>
<path d="M775 3211 c-6 -5 -19 -11 -30 -14 -15 -4 -13 -5 8 -6 31 -1 30 -1 17
-35 -6 -17 -6 -26 0 -26 6 0 10 6 10 14 0 7 8 20 17 27 15 12 16 12 10 -4 -4
-10 -7 -30 -7 -44 0 -16 -7 -27 -20 -30 -11 -3 -20 -12 -20 -20 0 -12 -3 -13
-14 -4 -11 9 -23 2 -57 -32 -36 -35 -43 -48 -41 -74 3 -34 -18 -63 -48 -63
-10 0 -20 -9 -23 -20 -3 -12 0 -20 7 -20 6 0 17 -9 24 -21 13 -20 14 -20 26
-4 12 16 13 16 19 2 3 -9 2 -19 -3 -22 -16 -10 -11 -25 5 -19 8 4 18 17 21 30
9 35 30 49 37 24 3 -11 1 -20 -4 -20 -5 0 -9 -4 -9 -10 0 -5 7 -7 15 -4 16 7
20 41 6 63 -14 21 10 72 31 65 14 -4 16 -1 9 23 -6 22 -4 35 10 52 11 13 19
29 19 37 0 8 7 14 15 14 9 0 15 9 15 21 0 23 15 41 45 53 19 8 19 8 -3 17 -28
10 -52 33 -52 48 0 13 -22 14 -35 2z"/>
<path d="M2970 3173 c-39 -6 -110 -34 -110 -44 0 -5 -7 -9 -15 -9 -8 0 -15 -5
-15 -10 0 -6 13 -4 30 5 l31 16 14 -35 c8 -20 15 -40 15 -46 0 -12 -13 -13
122 4 136 16 168 17 168 5 0 -5 16 -9 36 -9 32 0 35 2 28 23 -7 24 -22 35 -74
55 -110 42 -167 53 -230 45z m55 -33 c3 -5 2 -10 -4 -10 -5 0 -13 5 -16 10 -3
6 -2 10 4 10 5 0 13 -4 16 -10z m-35 -55 c0 -28 -7 -30 -34 -10 -21 16 -13 35
15 35 14 0 19 -7 19 -25z m54 16 c3 -5 -1 -14 -9 -21 -13 -10 -15 -9 -15 9 0
21 14 28 24 12z"/>
<path d="M1373 3079 c-4 -13 -8 -17 -13 -9 -4 7 -13 2 -24 -14 -16 -26 -16
-26 10 -16 32 12 34 12 34 0 0 -5 -8 -10 -17 -10 -17 -1 -63 -32 -63 -44 0 -3
7 -3 15 0 11 4 13 2 9 -9 -4 -12 -1 -14 15 -10 12 3 21 12 21 19 0 8 7 14 15
14 21 0 43 49 27 59 -7 4 -10 15 -6 24 4 10 1 17 -6 17 -6 0 -14 -9 -17 -21z"/>
<path d="M2785 3090 c-19 -8 -19 -9 2 -9 12 -1 25 4 28 9 7 12 -2 12 -30 0z"/>
<path d="M1115 3070 c-3 -5 -1 -10 4 -10 6 0 11 5 11 10 0 6 -2 10 -4 10 -3 0
-8 -4 -11 -10z"/>
<path d="M2750 3063 c1 -14 30 -47 36 -41 6 7 -17 48 -28 48 -5 0 -8 -3 -8 -7z"/>
<path d="M2715 3040 c-8 -13 -1 -24 14 -19 6 3 7 10 2 18 -6 10 -10 10 -16 1z"/>
<path d="M1122 3020 c0 -14 2 -19 5 -12 2 6 2 18 0 25 -3 6 -5 1 -5 -13z"/>
<path d="M1775 2963 c-11 -2 -26 -6 -33 -8 -7 -3 -16 -5 -20 -6 -4 -1 -19 -10
-34 -20 -14 -10 -29 -19 -33 -19 -13 0 -110 -92 -123 -115 -19 -37 1 -38 67
-5 54 28 60 34 55 55 -8 31 14 43 25 13 5 -13 7 -26 4 -31 -2 -4 8 -2 24 5 38
16 37 16 24 32 -17 20 -7 34 21 32 19 -1 22 -6 20 -30 -3 -25 -1 -28 15 -21
10 4 37 12 61 18 41 10 43 12 37 44 -4 25 -1 33 10 33 27 0 15 17 -16 24 -34
6 -72 6 -104 -1z m45 -58 c0 -8 0 -17 0 -20 0 -3 -3 -5 -7 -4 -5 0 -7 6 -5 14
1 7 -4 15 -13 19 -8 3 -15 10 -15 16 0 8 6 8 20 0 11 -6 20 -17 20 -25z"/>
<path d="M1310 2939 c0 -5 5 -7 10 -4 6 3 10 8 10 11 0 2 -4 4 -10 4 -5 0 -10
-5 -10 -11z"/>
<path d="M1980 2915 c0 -8 7 -15 15 -15 8 0 15 7 15 15 0 8 -7 15 -15 15 -8 0
-15 -7 -15 -15z"/>
<path d="M245 2890 c3 -5 11 -10 16 -10 6 0 7 5 4 10 -3 6 -11 10 -16 10 -6 0
-7 -4 -4 -10z"/>
<path d="M850 2816 c0 -2 7 -9 15 -16 12 -10 15 -10 15 4 0 9 -7 16 -15 16 -8
0 -15 -2 -15 -4z"/>
<path d="M480 2766 c0 -9 5 -16 10 -16 6 0 10 4 10 9 0 6 -4 13 -10 16 -5 3
-10 -1 -10 -9z"/>
<path d="M5170 2766 c0 -7 5 -17 12 -24 9 -9 9 -12 0 -12 -6 0 -16 8 -21 18
-9 15 -10 15 -11 -5 0 -13 5 -23 10 -23 6 0 8 -10 4 -24 -4 -18 -1 -27 14 -35
12 -6 25 -11 31 -11 17 0 13 27 -4 34 -8 3 -15 12 -15 20 0 8 7 21 15 30 23
23 18 44 -10 44 -14 0 -25 -6 -25 -12z"/>
<path d="M860 2760 c0 -5 5 -10 10 -10 6 0 10 5 10 10 0 6 -4 10 -10 10 -5 0
-10 -4 -10 -10z"/>
<path d="M840 2710 c0 -5 7 -10 15 -10 8 0 15 5 15 10 0 6 -7 10 -15 10 -8 0
-15 -4 -15 -10z"/>
<path d="M460 2674 c0 -8 5 -12 10 -9 6 4 8 11 5 16 -9 14 -15 11 -15 -7z"/>
<path d="M542 2643 c-6 -3 -10 -9 -6 -14 7 -12 44 -12 44 0 0 11 -21 19 -38
14z"/>
<path d="M825 2640 c-3 -5 -1 -10 4 -10 6 0 11 5 11 10 0 6 -2 10 -4 10 -3 0
-8 -4 -11 -10z"/>
<path d="M20 2476 c0 -2 8 -10 18 -17 15 -13 16 -12 3 4 -13 16 -21 21 -21 13z"/>
<path d="M80 2470 c0 -5 5 -10 10 -10 6 0 10 5 10 10 0 6 -4 10 -10 10 -5 0
-10 -4 -10 -10z"/>
<path d="M530 2360 c0 -5 5 -10 10 -10 6 0 10 5 10 10 0 6 -4 10 -10 10 -5 0
-10 -4 -10 -10z"/>
<path d="M2570 2357 c-51 -13 -83 -34 -93 -59 -5 -15 -2 -15 29 3 27 15 39 17
49 9 28 -23 125 15 125 50 0 13 -53 11 -110 -3z"/>
<path d="M476 2314 c-4 -10 -1 -14 6 -12 15 5 23 28 10 28 -5 0 -13 -7 -16
-16z"/>
<path d="M2236 2295 c25 -19 40 -19 24 0 -7 8 -20 15 -28 15 -13 0 -12 -3 4
-15z"/>
<path d="M637 2238 c-8 -28 -6 -29 16 -13 14 10 15 14 3 24 -11 9 -15 7 -19
-11z"/>
<path d="M5120 2230 c0 -5 5 -10 10 -10 6 0 10 5 10 10 0 6 -4 10 -10 10 -5 0
-10 -4 -10 -10z"/>
<path d="M265 2210 c-3 -5 -2 -10 4 -10 5 0 13 5 16 10 3 6 2 10 -4 10 -5 0
-13 -4 -16 -10z"/>
<path d="M520 2210 c0 -5 5 -10 10 -10 6 0 10 5 10 10 0 6 -4 10 -10 10 -5 0
-10 -4 -10 -10z"/>
<path d="M5195 2200 c3 -5 10 -10 16 -10 5 0 9 5 9 10 0 6 -7 10 -16 10 -8 0
-12 -4 -9 -10z"/>
<path d="M206 2181 c-4 -7 -5 -15 -2 -18 9 -9 19 4 14 18 -4 11 -6 11 -12 0z"/>
<path d="M520 2144 c0 -8 5 -12 10 -9 6 3 10 10 10 16 0 5 -4 9 -10 9 -5 0
-10 -7 -10 -16z"/>
<path d="M1330 2148 c0 -9 5 -20 10 -23 13 -8 13 5 0 25 -8 13 -10 13 -10 -2z"/>
<path d="M190 2125 c0 -9 6 -12 15 -9 8 4 15 10 15 15 0 5 -7 9 -15 9 -8 0
-15 -7 -15 -15z"/>
<path d="M4958 2134 c-5 -4 -8 -17 -8 -29 0 -19 4 -21 28 -17 17 4 21 7 10 10
-9 2 -18 12 -20 24 -2 11 -6 16 -10 12z"/>
<path d="M5025 2081 c-3 -5 -1 -12 5 -16 5 -3 10 1 10 9 0 18 -6 21 -15 7z"/>
<path d="M3065 2041 c-16 -4 -46 -15 -66 -25 -33 -16 -35 -19 -36 -67 l-1 -51
15 31 c9 17 22 31 29 31 17 0 19 -51 2 -68 -8 -8 -9 -12 -1 -12 16 0 43 29 43
46 0 10 6 13 18 10 11 -3 35 11 70 43 28 27 52 51 52 54 0 3 -12 5 -28 5 -15
-1 -36 1 -47 4 -11 3 -33 3 -50 -1z"/>
<path d="M540 2030 c0 -5 7 -10 16 -10 8 0 12 5 9 10 -3 6 -10 10 -16 10 -5 0
-9 -4 -9 -10z"/>
<path d="M71 1946 c-8 -10 -9 -16 -1 -21 5 -3 13 1 16 10 9 22 -1 29 -15 11z"/>
<path d="M0 1930 c0 -5 5 -10 10 -10 6 0 10 5 10 10 0 6 -4 10 -10 10 -5 0
-10 -4 -10 -10z"/>
<path d="M165 1930 c4 -6 11 -8 16 -5 14 9 11 15 -7 15 -8 0 -12 -5 -9 -10z"/>
<path d="M400 1929 c0 -5 5 -7 10 -4 6 3 10 8 10 11 0 2 -4 4 -10 4 -5 0 -10
-5 -10 -11z"/>
<path d="M242 1909 c-13 -5 -21 -13 -18 -18 7 -10 43 -3 51 10 9 13 -9 17 -33
8z"/>
<path d="M2960 1880 c0 -5 5 -10 11 -10 5 0 7 5 4 10 -3 6 -8 10 -11 10 -2 0
-4 -4 -4 -10z"/>
<path d="M2064 1870 c-50 -20 -38 -48 34 -81 47 -22 75 -19 66 6 -8 20 0 19
22 -2 16 -16 16 -16 9 7 -14 44 -35 68 -67 74 -36 7 -37 7 -64 -4z"/>
<path d="M100 1860 c0 -5 7 -10 15 -10 8 0 15 5 15 10 0 6 -7 10 -15 10 -8 0
-15 -4 -15 -10z"/>
<path d="M375 1860 c4 -6 11 -8 16 -5 14 9 11 15 -7 15 -8 0 -12 -5 -9 -10z"/>
<path d="M2920 1850 c0 -5 7 -10 15 -10 8 0 15 5 15 10 0 6 -7 10 -15 10 -8 0
-15 -4 -15 -10z"/>
<path d="M17 1832 c-27 -29 -20 -44 8 -18 14 13 25 26 25 30 0 12 -17 6 -33
-12z"/>
<path d="M274 1823 c-10 -8 -18 -20 -16 -28 1 -8 -11 -16 -30 -21 -18 -4 -35
-9 -38 -10 -3 -1 -16 -5 -28 -9 -18 -6 -20 -10 -10 -17 10 -7 10 -10 -4 -19
-10 -5 -18 -17 -18 -24 0 -18 5 -18 32 -4 14 8 23 8 31 0 18 -18 26 -13 29 22
2 23 8 32 21 31 9 -1 17 2 17 7 0 5 11 9 24 9 30 0 44 18 21 26 -14 6 -14 8 2
20 10 7 26 14 36 14 9 0 17 4 17 10 0 14 -64 9 -86 -7z"/>
<path d="M670 1762 c0 -5 7 -16 16 -23 14 -12 16 -11 13 5 -4 20 -29 35 -29
18z"/>
<path d="M3700 1750 c0 -5 5 -10 10 -10 6 0 10 5 10 10 0 6 -4 10 -10 10 -5 0
-10 -4 -10 -10z"/>
<path d="M2401 1734 c0 -11 3 -14 6 -6 3 7 2 16 -1 19 -3 4 -6 -2 -5 -13z"/>
<path d="M48 1672 c-42 -14 -48 -19 -48 -43 0 -53 40 -44 103 24 35 39 22 44
-55 19z"/>
<path d="M540 1610 c0 -5 5 -10 10 -10 6 0 10 5 10 10 0 6 -4 10 -10 10 -5 0
-10 -4 -10 -10z"/>
<path d="M3550 1544 c0 -8 5 -12 10 -9 6 3 10 10 10 16 0 5 -4 9 -10 9 -5 0
-10 -7 -10 -16z"/>
<path d="M3541 1494 c0 -11 3 -14 6 -6 3 7 2 16 -1 19 -3 4 -6 -2 -5 -13z"/>
<path d="M3454 1437 c-4 -17 -7 -40 -6 -50 1 -10 -2 -16 -7 -13 -5 4 -7 -4 -3
-16 5 -21 5 -21 15 3 6 13 10 27 9 30 -1 4 3 21 8 38 5 17 5 33 0 36 -4 2 -11
-10 -16 -28z"/>
<path d="M3270 1429 c0 -5 5 -7 10 -4 6 3 10 8 10 11 0 2 -4 4 -10 4 -5 0 -10
-5 -10 -11z"/>
<path d="M3390 1426 c0 -9 5 -16 10 -16 6 0 10 4 10 9 0 6 -4 13 -10 16 -5 3
-10 -1 -10 -9z"/>
<path d="M3300 1400 c0 -5 5 -10 11 -10 5 0 7 5 4 10 -3 6 -8 10 -11 10 -2 0
-4 -4 -4 -10z"/>
<path d="M3340 1379 c0 -5 5 -7 10 -4 6 3 10 8 10 11 0 2 -4 4 -10 4 -5 0 -10
-5 -10 -11z"/>
<path d="M3305 1350 c3 -5 11 -10 16 -10 6 0 7 5 4 10 -3 6 -11 10 -16 10 -6
0 -7 -4 -4 -10z"/>
<path d="M1930 1280 c0 -5 5 -10 10 -10 6 0 10 5 10 10 0 6 -4 10 -10 10 -5 0
-10 -4 -10 -10z"/>
<path d="M1980 1266 c0 -9 30 -14 35 -6 4 6 -3 10 -14 10 -12 0 -21 -2 -21 -4z"/>
<path d="M3155 1250 c3 -5 8 -10 11 -10 2 0 4 5 4 10 0 6 -5 10 -11 10 -5 0
-7 -4 -4 -10z"/>
<path d="M3230 1251 c0 -5 7 -11 15 -15 8 -3 15 -1 15 3 0 5 -7 11 -15 15 -8
3 -15 1 -15 -3z"/>
<path d="M1970 1231 c-7 -15 -7 -21 0 -21 12 0 25 28 17 36 -3 3 -10 -4 -17
-15z"/>
<path d="M3170 1221 c0 -5 7 -12 16 -15 14 -5 15 -4 4 9 -14 17 -20 19 -20 6z"/>
<path d="M3110 1192 c0 -7 -11 -12 -25 -12 -14 0 -25 -5 -25 -12 0 -6 3 -8 7
-5 3 4 12 2 20 -5 20 -16 53 16 35 34 -9 9 -12 9 -12 0z"/>
<path d="M3127 1113 c-4 -3 -7 -13 -7 -21 0 -12 3 -12 15 -2 8 7 15 16 15 21
0 11 -14 12 -23 2z"/>
<path d="M3190 1095 c0 -8 4 -15 10 -15 5 0 7 7 4 15 -4 8 -8 15 -10 15 -2 0
-4 -7 -4 -15z"/>
<path d="M2192 1070 c-7 -11 -9 -20 -4 -20 4 0 13 9 20 20 7 11 9 20 4 20 -4
0 -13 -9 -20 -20z"/>
<path d="M2274 1061 c4 -5 0 -11 -6 -14 -7 -2 -10 -8 -6 -12 4 -4 14 -1 22 8
15 14 12 27 -6 27 -5 0 -7 -4 -4 -9z"/>
<path d="M2215 1050 c-3 -5 -2 -10 4 -10 5 0 13 5 16 10 3 6 2 10 -4 10 -5 0
-13 -4 -16 -10z"/>
<path d="M2320 979 c0 -5 5 -7 10 -4 6 3 10 8 10 11 0 2 -4 4 -10 4 -5 0 -10
-5 -10 -11z"/>
<path d="M2265 969 c-4 -6 -5 -12 -2 -15 2 -3 7 2 10 11 7 17 1 20 -8 4z"/>
<path d="M2391 944 c0 -11 3 -14 6 -6 3 7 2 16 -1 19 -3 4 -6 -2 -5 -13z"/>
<path d="M2362 890 c0 -14 2 -19 5 -12 2 6 2 18 0 25 -3 6 -5 1 -5 -13z"/>
</g>
</svg>
